<?xml version="1.0" encoding="UTF-8"?>
<svg width="854px" height="387px" viewBox="0 0 854 387" version="1.1" xmlns="http://www.w3.org/2000/svg" xmlns:xlink="http://www.w3.org/1999/xlink">
    <title>header</title>
    <g id="header" stroke="none" stroke-width="1" fill="none" fill-rule="evenodd">
        <rect fill="#141414" x="0" y="0" width="854" height="387"></rect>
        <g id="Group-6" transform="translate(58.000000, 66.575470)" fill-rule="nonzero">
            <g id="Group" transform="translate(0.000000, 0.000000)">
                <path d="M24.8052817,105.731533 C28.9924981,105.731533 32.6894391,104.923241 35.8961048,103.306658 C39.1027705,101.690074 41.5806485,99.3977059 43.3297389,96.4295525 C45.0788292,93.4613992 45.9533744,90.0427225 45.9533744,86.1735226 L45.9533744,86.1735226 L45.9533744,50.396674 C45.9533744,50.1316603 45.8606196,49.9063987 45.67511,49.7208891 C45.4896005,49.5353795 45.2643388,49.4426247 44.9993251,49.4426247 L44.9993251,49.4426247 L33.7097418,49.4426247 C33.4447281,49.4426247 33.2194665,49.5353795 33.0339569,49.7208891 C32.8484473,49.9063987 32.7556925,50.1316603 32.7556925,50.396674 L32.7556925,50.396674 L32.7556925,86.1735226 C32.7556925,88.6646513 32.0269048,90.6655047 30.5693295,92.1760827 C29.1117542,93.6866608 27.1904049,94.4419498 24.8052817,94.4419498 C22.3671557,94.4419498 20.4193051,93.6866608 18.9617298,92.1760827 C17.5041544,90.6655047 16.7753668,88.6646513 16.7753668,86.1735226 L16.7753668,86.1735226 L16.7753668,50.396674 C16.7753668,50.1316603 16.682612,49.9063987 16.4971024,49.7208891 C16.3115928,49.5353795 16.0863312,49.4426247 15.8213175,49.4426247 L15.8213175,49.4426247 L4.53173416,49.4426247 C4.26672046,49.4426247 4.04145882,49.5353795 3.85594924,49.7208891 C3.67043965,49.9063987 3.57768486,50.1316603 3.57768486,50.396674 L3.57768486,50.396674 L3.57768486,86.1735226 C3.57768486,90.0427225 4.46548073,93.4613992 6.24107248,96.4295525 C8.01666422,99.3977059 10.5077929,101.690074 13.7144586,103.306658 C16.9211243,104.923241 20.6180653,105.731533 24.8052817,105.731533 Z M65.007859,105.0955 C65.2728727,105.0955 65.4981343,105.002746 65.6836439,104.817236 C65.8691535,104.631726 65.9619083,104.406465 65.9619083,104.141451 L65.9619083,104.141451 L65.9619083,50.396674 C65.9619083,50.1316603 65.8691535,49.9063987 65.6836439,49.7208891 C65.4981343,49.5353795 65.2728727,49.4426247 65.007859,49.4426247 L65.007859,49.4426247 L53.7182756,49.4426247 C53.4532619,49.4426247 53.2280003,49.5353795 53.0424907,49.7208891 C52.8569811,49.9063987 52.7642263,50.1316603 52.7642263,50.396674 L52.7642263,50.396674 L52.7642263,104.141451 C52.7642263,104.406465 52.8569811,104.631726 53.0424907,104.817236 C53.2280003,105.002746 53.4532619,105.0955 53.7182756,105.0955 L53.7182756,105.0955 L65.007859,105.0955 Z M82.8697819,105.0955 C83.452812,105.0955 83.8238312,104.856988 83.9828394,104.379963 L83.9828394,104.379963 L105.369444,50.5556822 C105.634458,49.8136439 105.395946,49.4426247 104.653907,49.4426247 L104.653907,49.4426247 L93.5233324,49.4426247 C92.9403022,49.4426247 92.5692831,49.681137 92.4102748,50.1581617 L92.4102748,50.1581617 L70.9441657,103.982443 C70.679152,104.724481 70.9176643,105.0955 71.6597027,105.0955 L71.6597027,105.0955 L82.8697819,105.0955 Z M133.010373,105.731533 C137.197589,105.731533 140.89453,104.923241 144.101196,103.306658 C147.307861,101.690074 149.785739,99.3977059 151.53483,96.4295525 C153.28392,93.4613992 154.158465,90.0427225 154.158465,86.1735226 L154.158465,86.1735226 L154.158465,50.396674 C154.158465,50.1316603 154.065711,49.9063987 153.880201,49.7208891 C153.694691,49.5353795 153.46943,49.4426247 153.204416,49.4426247 L153.204416,49.4426247 L141.914833,49.4426247 C141.649819,49.4426247 141.424557,49.5353795 141.239048,49.7208891 C141.053538,49.9063987 140.960783,50.1316603 140.960783,50.396674 L140.960783,50.396674 L140.960783,86.1735226 C140.960783,88.6646513 140.231996,90.6655047 138.77442,92.1760827 C137.316845,93.6866608 135.395496,94.4419498 133.010373,94.4419498 C130.572247,94.4419498 128.624396,93.6866608 127.166821,92.1760827 C125.709245,90.6655047 124.980458,88.6646513 124.980458,86.1735226 L124.980458,86.1735226 L124.980458,50.396674 C124.980458,50.1316603 124.887703,49.9063987 124.702193,49.7208891 C124.516684,49.5353795 124.291422,49.4426247 124.026408,49.4426247 L124.026408,49.4426247 L112.736825,49.4426247 C112.471811,49.4426247 112.24655,49.5353795 112.06104,49.7208891 C111.875531,49.9063987 111.782776,50.1316603 111.782776,50.396674 L111.782776,50.396674 L111.782776,86.1735226 C111.782776,90.0427225 112.670572,93.4613992 114.446163,96.4295525 C116.221755,99.3977059 118.712884,101.690074 121.91955,103.306658 C125.126215,104.923241 128.823156,105.731533 133.010373,105.731533 Z M172.258901,105.0955 C172.788928,105.0955 173.186449,104.883489 173.451462,104.459467 L173.451462,104.459467 L182.514931,87.8431089 C182.673939,87.5780952 182.832947,87.5780952 182.991955,87.8431089 L182.991955,87.8431089 L192.134928,104.459467 C192.399941,104.883489 192.797462,105.0955 193.327489,105.0955 L193.327489,105.0955 L205.491618,105.0955 C206.021645,105.0955 206.286659,104.883489 206.286659,104.459467 C206.286659,104.353462 206.233656,104.194454 206.127651,103.982443 L206.127651,103.982443 L191.180878,77.5075748 C191.127876,77.3485666 191.127876,77.1895584 191.180878,77.0305502 L191.180878,77.0305502 L206.127651,50.5556822 C206.286659,50.2376658 206.31316,49.9726521 206.207155,49.7606411 C206.101149,49.5486302 205.862637,49.4426247 205.491618,49.4426247 L205.491618,49.4426247 L193.247985,49.4426247 C192.664955,49.4426247 192.267434,49.6546356 192.055424,50.0786576 L192.055424,50.0786576 L182.991955,66.7745202 C182.832947,66.9865312 182.673939,66.9865312 182.514931,66.7745202 L182.514931,66.7745202 L173.530966,50.0786576 C173.318955,49.6546356 172.921435,49.4426247 172.338405,49.4426247 L172.338405,49.4426247 L160.094772,49.4426247 C159.511742,49.4426247 159.220227,49.6546356 159.220227,50.0786576 L159.220227,50.0786576 L159.379235,50.5556822 L174.405512,77.0305502 C174.511517,77.1895584 174.511517,77.3485666 174.405512,77.5075748 L174.405512,77.5075748 L159.379235,103.982443 C159.167224,104.300459 159.140723,104.565473 159.299731,104.777484 C159.458739,104.989495 159.723753,105.0955 160.094772,105.0955 L160.094772,105.0955 L172.258901,105.0955 Z M248.132321,105.0955 C252.266535,105.0955 255.923724,104.379963 259.103888,102.948889 C262.284052,101.517815 264.74868,99.47721 266.49777,96.8270731 C268.24686,94.1769361 269.121406,91.1292787 269.121406,87.6841006 L269.121406,87.6841006 L269.121406,66.8540243 C269.121406,63.4088463 268.24686,60.3611889 266.49777,57.7110519 C264.74868,55.060915 262.284052,53.0203096 259.103888,51.5892356 C255.923724,50.1581617 252.266535,49.4426247 248.132321,49.4426247 L248.132321,49.4426247 L227.858773,49.4426247 C227.59376,49.4426247 227.368498,49.5353795 227.182989,49.7208891 C226.997479,49.9063987 226.904724,50.1316603 226.904724,50.396674 L226.904724,50.396674 L226.904724,104.141451 C226.904724,104.406465 226.997479,104.631726 227.182989,104.817236 C227.368498,105.002746 227.59376,105.0955 227.858773,105.0955 L227.858773,105.0955 L248.132321,105.0955 Z M248.68885,93.805917 L240.499927,93.805917 C240.234913,93.805917 240.102406,93.6734101 240.102406,93.4083964 L240.102406,93.4083964 L240.102406,61.1297286 C240.102406,60.8647149 240.234913,60.732208 240.499927,60.732208 L240.499927,60.732208 L248.609346,60.732208 C250.782458,60.732208 252.544799,61.4874971 253.896369,62.9980751 C255.247939,64.5086532 255.923724,66.5360079 255.923724,69.0801394 L255.923724,69.0801394 L255.923724,85.4579856 C255.870721,88.0021171 255.181685,90.0294718 253.856617,91.5400499 C252.531548,93.0506279 250.808959,93.805917 248.68885,93.805917 L248.68885,93.805917 Z M295.33126,105.731533 C298.564427,105.731533 301.545831,105.201506 304.275472,104.141451 C307.005113,103.081396 309.297481,101.544317 311.152577,99.5302127 C311.364588,99.3182018 311.470594,99.1061908 311.470594,98.8941799 C311.470594,98.6291662 311.364588,98.4171552 311.152577,98.258147 L311.152577,98.258147 L305.030761,91.2617855 C304.871753,91.0497745 304.659742,90.9437691 304.394728,90.9437691 C304.129714,90.9437691 303.891202,91.0762759 303.679191,91.3412896 C301.771093,93.5144019 299.147457,94.600958 295.808284,94.600958 C293.953189,94.600958 292.389608,94.2564402 291.117542,93.5674046 C289.845476,92.878369 288.891427,91.9773225 288.255394,90.864265 C287.831372,89.9102157 287.566359,89.141676 287.460353,88.5586458 C287.40735,88.4526404 287.433852,88.3598856 287.539857,88.2803815 C287.645863,88.2008773 287.751868,88.1611253 287.857874,88.1611253 L287.857874,88.1611253 L312.106627,88.1611253 C312.742659,88.1611253 313.087177,87.8431089 313.14018,87.207076 C313.246185,84.6099418 313.166681,82.5163336 312.901668,80.9262515 C312.37164,77.5340762 311.245332,74.4996694 309.522743,71.8230311 C307.800154,69.1463928 305.560788,67.0527846 302.804646,65.5422066 C300.048504,64.0316285 296.921342,63.2763395 293.423161,63.2763395 C289.076937,63.2763395 285.326993,64.4026477 282.17333,66.6552641 C279.019667,68.9078805 276.7538,71.99529 275.375729,75.9174927 C274.527685,78.4616241 274.103663,81.111761 274.103663,83.8679035 C274.103663,87.8431089 274.660192,91.15578 275.773249,93.805917 C277.257326,97.5691114 279.682201,100.497513 283.047875,102.591121 C286.413549,104.684729 290.508011,105.731533 295.33126,105.731533 Z M299.147457,80.608235 L287.857874,80.608235 C287.539857,80.608235 287.433852,80.4757282 287.539857,80.2107145 C287.59286,79.6806871 287.725367,79.1241583 287.937378,78.5411282 C288.838424,75.943994 290.667019,74.6454269 293.423161,74.6454269 C294.907238,74.6454269 296.139552,74.9899447 297.120102,75.6789803 C298.100653,76.3680159 298.776438,77.375068 299.147457,78.7001364 C299.359468,79.3361693 299.465473,79.8661967 299.465473,80.2902186 C299.465473,80.5022296 299.359468,80.608235 299.147457,80.608235 L299.147457,80.608235 Z M334.897804,105.731533 C340.410089,105.731533 344.796066,104.605225 348.055734,102.352609 C351.315402,100.099992 352.945237,96.9065772 352.945237,92.7723636 C352.945237,89.7512075 352.030939,87.3395828 350.202345,85.5374897 C348.37375,83.7353966 345.816368,82.3043227 342.530199,81.2442679 C341.311136,80.8732487 339.164525,80.3697227 336.090366,79.7336898 C333.705243,79.2566652 332.009155,78.8193926 331.002103,78.4218721 C329.995051,78.0243515 329.491525,77.375068 329.491525,76.4740214 C329.491525,75.5729749 329.955299,74.8706886 330.882847,74.3671626 C331.810395,73.8636365 333.016207,73.6118735 334.500284,73.6118735 C336.143369,73.6118735 337.441936,73.92989 338.395985,74.5659228 C339.350034,75.2019557 339.827059,76.0234981 339.827059,77.0305502 C339.827059,77.2955639 339.919814,77.5208255 340.105323,77.7063351 C340.290833,77.8918447 340.516094,77.9845995 340.781108,77.9845995 L340.781108,77.9845995 L351.196146,77.9845995 C351.46116,77.9845995 351.686422,77.8918447 351.871931,77.7063351 C352.057441,77.5208255 352.150196,77.2955639 352.150196,77.0305502 C352.150196,74.3274105 351.408157,71.9422873 349.924081,69.8751805 C348.440004,67.8080736 346.359646,66.2047408 343.683008,65.0651819 C341.00637,63.925623 337.892459,63.3558436 334.341275,63.3558436 C329.094004,63.3558436 324.867036,64.5616559 321.66037,66.9732805 C318.453705,69.3849051 316.850372,72.6578242 316.850372,76.7920378 C316.850372,79.7071885 317.645413,81.9995569 319.235495,83.6691432 C320.825577,85.3387295 322.972188,86.7300513 325.675328,87.8431089 C327.742434,88.7441554 330.445574,89.5126951 333.784747,90.148728 C335.851853,90.5197472 337.349181,90.904017 338.276729,91.3015376 C339.204277,91.6990581 339.668051,92.3218403 339.668051,93.1698841 C339.668051,94.0179279 339.230778,94.6937128 338.356233,95.1972388 C337.481688,95.7007649 336.302377,95.9525279 334.8183,95.9525279 C333.122212,95.9525279 331.71764,95.6212608 330.604582,94.9587265 C329.491525,94.2961923 328.934996,93.4613992 328.934996,92.4543471 C328.934996,92.1893334 328.842241,91.9640718 328.656732,91.7785622 C328.471222,91.5930526 328.24596,91.5002978 327.980947,91.5002978 L327.980947,91.5002978 L317.247892,91.5002978 C316.982879,91.5002978 316.757617,91.5930526 316.572107,91.7785622 C316.386598,91.9640718 316.293843,92.1893334 316.293843,92.4543471 L316.293843,92.4543471 L316.293843,93.3288923 C316.293843,95.7670183 317.049132,97.9268799 318.55971,99.8084771 C320.070288,101.690074 322.23015,103.14765 325.039295,104.181203 C327.84844,105.214756 331.13461,105.731533 334.897804,105.731533 Z M364.208319,60.3346875 C366.222423,60.3346875 367.878758,59.6721533 369.177325,58.3470848 C370.475893,57.0220163 371.125176,55.3789314 371.125176,53.4178301 C371.125176,51.3507233 370.475893,49.681137 369.177325,48.4090713 C367.878758,47.1370056 366.222423,46.5009727 364.208319,46.5009727 C362.194215,46.5009727 360.537879,47.1370056 359.239312,48.4090713 C357.940745,49.681137 357.291461,51.3507233 357.291461,53.4178301 C357.291461,55.4319342 357.940745,57.0882697 359.239312,58.3868368 C360.537879,59.6854039 362.194215,60.3346875 364.208319,60.3346875 Z M369.773606,105.0955 C370.03862,105.0955 370.263882,105.002746 370.449391,104.817236 C370.634901,104.631726 370.727656,104.406465 370.727656,104.141451 L370.727656,104.141451 L370.727656,64.9459258 C370.727656,64.6809121 370.634901,64.4556504 370.449391,64.2701408 C370.263882,64.0846313 370.03862,63.9918765 369.773606,63.9918765 L369.773606,63.9918765 L358.484023,63.9918765 C358.219009,63.9918765 357.993748,64.0846313 357.808238,64.2701408 C357.622728,64.4556504 357.529974,64.6809121 357.529974,64.9459258 L357.529974,64.9459258 L357.529974,104.141451 C357.529974,104.406465 357.622728,104.631726 357.808238,104.817236 C357.993748,105.002746 358.219009,105.0955 358.484023,105.0955 L358.484023,105.0955 L369.773606,105.0955 Z M392.8828,120.75781 C399.296132,120.75781 404.596406,119.194229 408.783622,116.067067 C412.970838,112.939906 415.064446,107.745637 415.064446,100.484262 L415.064446,100.484262 L415.064446,64.9459258 C415.064446,64.6809121 414.971692,64.4556504 414.786182,64.2701408 C414.600672,64.0846313 414.375411,63.9918765 414.110397,63.9918765 L414.110397,63.9918765 L402.820814,63.9918765 C402.5558,63.9918765 402.330538,64.0846313 402.145029,64.2701408 C401.959519,64.4556504 401.866764,64.6809121 401.866764,64.9459258 L401.866764,64.9459258 L401.866764,66.6950161 C401.866764,66.8540243 401.813762,66.9467791 401.707756,66.9732805 C401.601751,66.9997819 401.495745,66.9600298 401.38974,66.8540243 C399.322633,64.5219038 396.380981,63.3558436 392.564784,63.3558436 C389.0136,63.3558436 385.899689,64.3363943 383.223051,66.2974956 C380.546413,68.2585969 378.598562,70.8822325 377.379499,74.1684023 C376.372447,76.7655365 375.868921,80.104709 375.868921,84.1859199 C375.868921,87.8961116 376.292943,91.0232732 377.140987,93.5674046 C378.413053,97.4366046 380.506661,100.139744 383.421811,101.676824 C386.336962,103.213903 389.543628,103.982443 393.041808,103.982443 C396.645995,103.982443 399.402137,103.028393 401.310236,101.120295 L401.310236,101.120295 L401.866764,100.563766 C401.866764,103.53192 400.992219,105.705032 399.243129,107.083103 C397.494039,108.461174 395.108915,109.15021 392.087759,109.15021 C390.232663,109.15021 388.218559,108.911697 386.045447,108.434673 C385.727431,108.328667 385.462417,108.341918 385.250406,108.474425 C385.038395,108.606932 384.932389,108.858695 384.932389,109.229714 L384.932389,109.229714 L384.534869,119.088223 C384.534869,119.724256 384.799883,120.068774 385.32991,120.121777 C387.980047,120.545799 390.497677,120.75781 392.8828,120.75781 Z M395.744948,93.7264129 C394.41988,93.7264129 393.280321,93.381895 392.326272,92.6928594 C391.372222,92.0038238 390.656685,91.1027773 390.179661,89.9897198 C389.490625,88.7706568 389.146107,86.8625582 389.146107,84.265424 C389.146107,81.827298 389.543628,79.8661967 390.338669,78.38212 C391.398724,75.8909913 393.174315,74.6454269 395.665444,74.6454269 C396.990513,74.6454269 398.116821,74.976694 399.044369,75.6392283 C399.971917,76.3017625 400.647701,77.2160598 401.071723,78.38212 C401.38974,79.1241583 401.601751,79.9059487 401.707756,80.7274912 C401.813762,81.5490336 401.866764,82.6753418 401.866764,84.1064158 C401.866764,86.8625582 401.628252,88.8501609 401.151227,90.0692239 C400.250181,92.5073499 398.448088,93.7264129 395.744948,93.7264129 Z M433.244386,105.0955 C433.509399,105.0955 433.734661,105.002746 433.920171,104.817236 C434.10568,104.631726 434.198435,104.406465 434.198435,104.141451 L434.198435,104.141451 L434.198435,80.8467474 C434.198435,78.9916515 434.701961,77.4943241 435.709013,76.3547653 C436.716065,75.2152064 438.041134,74.6454269 439.684218,74.6454269 C441.274301,74.6454269 442.572868,75.2284571 443.57992,76.3945173 C444.586972,77.5605776 445.090498,79.0446542 445.090498,80.8467474 L445.090498,80.8467474 L445.090498,104.141451 C445.090498,104.406465 445.183253,104.631726 445.368762,104.817236 C445.554272,105.002746 445.779533,105.0955 446.044547,105.0955 L446.044547,105.0955 L457.33413,105.0955 C457.599144,105.0955 457.824406,105.002746 458.009915,104.817236 C458.195425,104.631726 458.28818,104.406465 458.28818,104.141451 L458.28818,104.141451 L458.28818,77.9845995 C458.28818,73.4793667 456.963111,69.9149325 454.312974,67.2912969 C451.662837,64.6676614 448.270662,63.3558436 444.136449,63.3558436 C439.790224,63.3558436 436.61006,64.9194244 434.595956,68.046586 C434.48995,68.2055942 434.397195,68.2718476 434.317691,68.2453462 C434.238187,68.2188449 434.198435,68.0995887 434.198435,67.8875778 L434.198435,67.8875778 L434.198435,64.9459258 C434.198435,64.6809121 434.10568,64.4556504 433.920171,64.2701408 C433.734661,64.0846313 433.509399,63.9918765 433.244386,63.9918765 L433.244386,63.9918765 L421.954802,63.9918765 C421.689789,63.9918765 421.464527,64.0846313 421.279017,64.2701408 C421.093508,64.4556504 421.000753,64.6809121 421.000753,64.9459258 L421.000753,64.9459258 L421.000753,104.141451 C421.000753,104.406465 421.093508,104.631726 421.279017,104.817236 C421.464527,105.002746 421.689789,105.0955 421.954802,105.0955 L421.954802,105.0955 L433.244386,105.0955 Z M484.498034,105.731533 C487.731201,105.731533 490.712605,105.201506 493.442246,104.141451 C496.171887,103.081396 498.464256,101.544317 500.319352,99.5302127 C500.531362,99.3182018 500.637368,99.1061908 500.637368,98.8941799 C500.637368,98.6291662 500.531362,98.4171552 500.319352,98.258147 L500.319352,98.258147 L494.197535,91.2617855 C494.038527,91.0497745 493.826516,90.9437691 493.561502,90.9437691 C493.296489,90.9437691 493.057976,91.0762759 492.845965,91.3412896 C490.937867,93.5144019 488.314231,94.600958 484.975059,94.600958 C483.119963,94.600958 481.556382,94.2564402 480.284316,93.5674046 C479.012251,92.878369 478.058201,91.9773225 477.422168,90.864265 C476.998147,89.9102157 476.733133,89.141676 476.627127,88.5586458 C476.574125,88.4526404 476.600626,88.3598856 476.706631,88.2803815 C476.812637,88.2008773 476.918642,88.1611253 477.024648,88.1611253 L477.024648,88.1611253 L501.273401,88.1611253 C501.909434,88.1611253 502.253951,87.8431089 502.306954,87.207076 C502.41296,84.6099418 502.333456,82.5163336 502.068442,80.9262515 C501.538415,77.5340762 500.412106,74.4996694 498.689517,71.8230311 C496.966928,69.1463928 494.727563,67.0527846 491.97142,65.5422066 C489.215278,64.0316285 486.088116,63.2763395 482.589935,63.2763395 C478.243711,63.2763395 474.493767,64.4026477 471.340104,66.6552641 C468.186441,68.9078805 465.920574,71.99529 464.542503,75.9174927 C463.694459,78.4616241 463.270437,81.111761 463.270437,83.8679035 C463.270437,87.8431089 463.826966,91.15578 464.940023,93.805917 C466.4241,97.5691114 468.848975,100.497513 472.214649,102.591121 C475.580323,104.684729 479.674785,105.731533 484.498034,105.731533 Z M488.314231,80.608235 L477.024648,80.608235 C476.706631,80.608235 476.600626,80.4757282 476.706631,80.2107145 C476.759634,79.6806871 476.892141,79.1241583 477.104152,78.5411282 C478.005199,75.943994 479.833793,74.6454269 482.589935,74.6454269 C484.074012,74.6454269 485.306326,74.9899447 486.286876,75.6789803 C487.267427,76.3680159 487.943212,77.375068 488.314231,78.7001364 C488.526242,79.3361693 488.632248,79.8661967 488.632248,80.2902186 C488.632248,80.5022296 488.526242,80.608235 488.314231,80.608235 L488.314231,80.608235 Z M519.294332,105.0955 C519.559346,105.0955 519.784607,105.002746 519.970117,104.817236 C520.155626,104.631726 520.248381,104.406465 520.248381,104.141451 L520.248381,104.141451 L520.248381,83.2318706 C520.248381,81.4827802 520.818161,80.0782076 521.95772,79.0181529 C523.097278,77.9580981 524.4886,77.3220652 526.131685,77.1100543 C526.60871,77.0040488 527.297745,76.9510461 528.198792,76.9510461 C529.046836,76.9510461 529.947882,77.0570515 530.901932,77.2690625 C531.590967,77.5340762 531.961986,77.3485666 532.014989,76.7125337 L532.014989,76.7125337 L533.843584,65.6614627 C533.949589,65.1314353 533.790581,64.7339148 533.366559,64.4689011 C532.306504,63.7798655 530.822428,63.4353477 528.914329,63.4353477 C525.522154,63.4353477 522.766011,64.8399203 520.645902,67.6490654 C520.592899,67.8080736 520.513395,67.8610764 520.407389,67.8080736 C520.301384,67.7550709 520.248381,67.6490654 520.248381,67.4900572 L520.248381,67.4900572 L520.248381,64.9459258 C520.248381,64.6809121 520.155626,64.4556504 519.970117,64.2701408 C519.784607,64.0846313 519.559346,63.9918765 519.294332,63.9918765 L519.294332,63.9918765 L508.004749,63.9918765 C507.739735,63.9918765 507.514473,64.0846313 507.328964,64.2701408 C507.143454,64.4556504 507.050699,64.6809121 507.050699,64.9459258 L507.050699,64.9459258 L507.050699,104.141451 C507.050699,104.406465 507.143454,104.631726 507.328964,104.817236 C507.514473,105.002746 507.739735,105.0955 508.004749,105.0955 L508.004749,105.0955 L519.294332,105.0955 Z M569.726438,105.731533 C575.238723,105.731533 580.485994,104.353462 585.468251,101.59732 C585.733265,101.544317 585.918774,101.570818 586.02478,101.676824 L586.02478,101.676824 L588.72792,104.618476 C588.992933,104.936492 589.390454,105.0955 589.920481,105.0955 L589.920481,105.0955 L602.48213,105.0955 C603.06516,105.0955 603.356675,104.909991 603.356675,104.538972 C603.356675,104.432966 603.25067,104.220955 603.038659,103.902939 C602.826648,103.690928 602.561634,103.399413 602.243618,103.028393 C601.925602,102.657374 601.554582,102.233352 601.13056,101.756328 C598.162407,98.5231607 596.121802,96.2440429 595.008744,94.9189745 C594.796733,94.7069635 594.770232,94.5214539 594.92924,94.3624457 C597.579377,91.659306 599.991002,88.5056431 602.164114,84.9014569 C602.48213,84.4244322 602.349623,84.0004103 601.766593,83.6293911 L601.766593,83.6293911 L593.418662,78.8591447 C593.153648,78.7001364 592.901885,78.6603844 592.663373,78.7398885 C592.424861,78.8193926 592.2261,78.9916515 592.067092,79.2566652 C590.954035,81.2177665 589.284448,83.3113747 587.058333,85.5374897 C586.846322,85.7495007 586.660813,85.7495007 586.501805,85.5374897 C584.063679,82.8873528 582.288087,80.9262515 581.175029,79.6541857 C580.963018,79.4421748 580.98952,79.2566652 581.254533,79.097657 C584.27569,77.1895584 586.660813,75.0429475 588.409903,72.6578242 C590.158994,70.272701 591.033539,67.4370545 591.033539,64.1508847 C591.033539,61.1297286 590.264999,58.466341 588.72792,56.1607218 C587.19084,53.8551027 585.05748,52.0530096 582.327839,50.7544425 C579.598198,49.4558754 576.510788,48.8065918 573.06561,48.8065918 C569.673435,48.8065918 566.67878,49.4426247 564.081646,50.7146904 C561.484512,51.9867562 559.470408,53.6960945 558.039334,55.8427054 C556.60826,57.9893163 555.892723,60.3611889 555.892723,62.9583231 C555.892723,64.9724271 556.290244,66.8540243 557.085285,68.6031147 C557.880326,70.3522051 559.496909,72.6843256 561.935035,75.5994762 C562.200049,75.7584844 562.173548,75.943994 561.855531,76.156005 C558.72837,78.0111008 556.250491,80.1312104 554.421897,82.5163336 C552.593303,84.9014569 551.679005,87.8431089 551.679005,91.3412896 C551.679005,96.1645388 553.414845,99.7687251 556.886524,102.153848 C560.358204,104.538972 564.638175,105.731533 569.726438,105.731533 Z M573.224619,70.1931969 C572.959605,70.2992024 572.774095,70.2461996 572.66809,70.0341887 C571.184013,68.2320956 570.216713,66.9600298 569.76619,66.2179915 C569.315667,65.4759531 569.090405,64.8134189 569.090405,64.2303888 C569.090405,63.2233367 569.474675,62.3885436 570.243214,61.7260094 C571.011754,61.0634751 572.058558,60.732208 573.383627,60.732208 C574.708695,60.732208 575.782001,61.0634751 576.603543,61.7260094 C577.425086,62.3885436 577.835857,63.3028409 577.835857,64.4689011 C577.835857,65.5819586 577.438336,66.5890107 576.643295,67.4900572 C575.848254,68.3911038 574.708695,69.2921503 573.224619,70.1931969 Z M570.123958,94.8394704 C568.639882,94.8394704 567.434069,94.4817019 566.506521,93.7661649 C565.578973,93.0506279 565.1152,92.1363307 565.1152,91.0232732 C565.1152,90.652254 565.141701,90.3607389 565.194704,90.148728 C565.353712,89.1946787 565.830736,88.3201335 566.625778,87.5250924 C567.420819,86.7300513 568.533876,85.9085089 569.96495,85.0604651 C570.229964,84.9544596 570.415473,84.980961 570.521479,85.1399692 C572.429577,87.207076 573.489632,88.3466349 573.701643,88.5586458 L573.701643,88.5586458 L577.199824,92.2953389 C577.411835,92.5073499 577.385334,92.6928594 577.12032,92.8518677 C575.530238,93.6469087 573.860651,94.2299389 572.111561,94.600958 C571.422525,94.7599663 570.759991,94.8394704 570.123958,94.8394704 Z M16.1393339,191.76647 C16.4043476,191.76647 16.6296093,191.673716 16.8151188,191.488206 C17.0006284,191.302696 17.0933832,191.077435 17.0933832,190.812421 L17.0933832,190.812421 L17.0933832,169.584824 C17.0933832,169.31981 17.2258901,169.187304 17.4909038,169.187304 L17.4909038,169.187304 L33.4712295,169.187304 C33.7362432,169.187304 33.9615048,169.094549 34.1470144,168.909039 C34.332524,168.72353 34.4252788,168.498268 34.4252788,168.233254 L34.4252788,168.233254 L34.4252788,158.931274 C34.4252788,158.66626 34.332524,158.440998 34.1470144,158.255489 C33.9615048,158.069979 33.7362432,157.977224 33.4712295,157.977224 L33.4712295,157.977224 L17.4909038,157.977224 C17.2258901,157.977224 17.0933832,157.844718 17.0933832,157.579704 L17.0933832,157.579704 L17.0933832,147.800699 C17.0933832,147.535685 17.2258901,147.403178 17.4909038,147.403178 L17.4909038,147.403178 L42.3756896,147.403178 C42.6407033,147.403178 42.8659649,147.310423 43.0514745,147.124914 C43.2369841,146.939404 43.3297389,146.714142 43.3297389,146.449129 L43.3297389,146.449129 L43.3297389,137.067644 C43.3297389,136.80263 43.2369841,136.577369 43.0514745,136.391859 C42.8659649,136.206349 42.6407033,136.113595 42.3756896,136.113595 L42.3756896,136.113595 L4.84975059,136.113595 C4.58473689,136.113595 4.35947526,136.206349 4.17396567,136.391859 C3.98845608,136.577369 3.89570129,136.80263 3.89570129,137.067644 L3.89570129,137.067644 L3.89570129,190.812421 C3.89570129,191.077435 3.98845608,191.302696 4.17396567,191.488206 C4.35947526,191.673716 4.58473689,191.76647 4.84975059,191.76647 L4.84975059,191.76647 L16.1393339,191.76647 Z M56.4214153,191.76647 C56.686429,191.76647 56.9116906,191.673716 57.0972002,191.488206 C57.2827098,191.302696 57.3754646,191.077435 57.3754646,190.812421 L57.3754646,190.812421 L57.3754646,169.902841 C57.3754646,168.15375 57.945244,166.749178 59.0848029,165.689123 C60.2243618,164.629068 61.6156837,163.993035 63.2587686,163.781024 C63.7357932,163.675019 64.4248288,163.622016 65.3258754,163.622016 C66.1739192,163.622016 67.0749658,163.728022 68.0290151,163.940032 C68.7180507,164.205046 69.0890698,164.019537 69.1420726,163.383504 L69.1420726,163.383504 L70.9706671,152.332433 C71.0766725,151.802405 70.9176643,151.404885 70.4936424,151.139871 C69.4335876,150.450836 67.949511,150.106318 66.0414124,150.106318 C62.6492371,150.106318 59.8930947,151.51089 57.7729851,154.320035 C57.7199824,154.479044 57.6404783,154.532046 57.5344728,154.479044 C57.4284673,154.426041 57.3754646,154.320035 57.3754646,154.161027 L57.3754646,154.161027 L57.3754646,151.616896 C57.3754646,151.351882 57.2827098,151.12662 57.0972002,150.941111 C56.9116906,150.755601 56.686429,150.662846 56.4214153,150.662846 L56.4214153,150.662846 L45.131832,150.662846 C44.8668183,150.662846 44.6415566,150.755601 44.456047,150.941111 C44.2705375,151.12662 44.1777827,151.351882 44.1777827,151.616896 L44.1777827,151.616896 L44.1777827,190.812421 C44.1777827,191.077435 44.2705375,191.302696 44.456047,191.488206 C44.6415566,191.673716 44.8668183,191.76647 45.131832,191.76647 L45.131832,191.76647 L56.4214153,191.76647 Z M92.0922584,192.402503 C96.9155076,192.402503 100.996719,191.103936 104.335891,188.506802 C107.675064,185.909668 109.901179,182.384986 111.014236,177.932756 C111.597266,175.70664 111.888781,173.37452 111.888781,170.936394 C111.888781,168.233254 111.517762,165.689123 110.775724,163.304 C109.503658,159.169786 107.251042,155.923368 104.017875,153.564746 C100.784708,151.206125 96.8360035,150.026814 92.1717625,150.026814 C87.4545188,150.026814 83.4395613,151.206125 80.1268902,153.564746 C76.814219,155.923368 74.5483519,159.196287 73.3292889,163.383504 C72.6402533,165.609619 72.2957355,168.180252 72.2957355,171.095402 C72.2957355,173.692536 72.613752,176.07766 73.2497848,178.250772 C74.3628423,182.596997 76.5889574,186.042175 79.9281299,188.586306 C83.2673024,191.130437 87.3220119,192.402503 92.0922584,192.402503 Z M92.0922584,181.11292 C90.555179,181.11292 89.2698626,180.622644 88.2363092,179.642094 C87.2027558,178.661543 86.4739681,177.323224 86.0499462,175.627136 C85.7319298,174.249065 85.5729216,172.738487 85.5729216,171.095402 C85.5729216,169.293309 85.7319298,167.75623 86.0499462,166.484164 C87.0039955,163.038986 89.0180996,161.316397 92.0922584,161.316397 C93.6293378,161.316397 94.9014036,161.76692 95.9084556,162.667967 C96.9155076,163.569013 97.6310446,164.841079 98.0550665,166.484164 C98.4260857,167.968241 98.6115953,169.50532 98.6115953,171.095402 C98.6115953,172.738487 98.4525871,174.249065 98.1345706,175.627136 C97.657546,177.323224 96.9155076,178.661543 95.9084556,179.642094 C94.9014036,180.622644 93.6293378,181.11292 92.0922584,181.11292 Z M129.194175,191.76647 C129.459189,191.76647 129.684451,191.673716 129.86996,191.488206 C130.05547,191.302696 130.148225,191.077435 130.148225,190.812421 L130.148225,190.812421 L130.148225,167.517717 C130.148225,165.662622 130.651751,164.165294 131.658803,163.025735 C132.665855,161.886176 133.990923,161.316397 135.634008,161.316397 C137.22409,161.316397 138.522657,161.899427 139.52971,163.065487 C140.536762,164.231548 141.040288,165.715624 141.040288,167.517717 L141.040288,167.517717 L141.040288,190.812421 C141.040288,191.077435 141.133042,191.302696 141.318552,191.488206 C141.504062,191.673716 141.729323,191.76647 141.994337,191.76647 L141.994337,191.76647 L153.28392,191.76647 C153.548934,191.76647 153.774196,191.673716 153.959705,191.488206 C154.145215,191.302696 154.237969,191.077435 154.237969,190.812421 L154.237969,190.812421 L154.237969,164.655569 C154.237969,160.150337 152.912901,156.585903 150.262764,153.962267 C147.612627,151.338631 144.220452,150.026814 140.086238,150.026814 C135.740014,150.026814 132.559849,151.590394 130.545745,154.717556 C130.43974,154.876564 130.346985,154.942818 130.267481,154.916316 C130.187977,154.889815 130.148225,154.770559 130.148225,154.558548 L130.148225,154.558548 L130.148225,151.616896 C130.148225,151.351882 130.05547,151.12662 129.86996,150.941111 C129.684451,150.755601 129.459189,150.662846 129.194175,150.662846 L129.194175,150.662846 L117.904592,150.662846 C117.639578,150.662846 117.414317,150.755601 117.228807,150.941111 C117.043298,151.12662 116.950543,151.351882 116.950543,151.616896 L116.950543,151.616896 L116.950543,190.812421 C116.950543,191.077435 117.043298,191.302696 117.228807,191.488206 C117.414317,191.673716 117.639578,191.76647 117.904592,191.76647 L117.904592,191.76647 L129.194175,191.76647 Z M177.824188,192.004983 C178.990248,192.004983 180.845344,191.95198 183.389476,191.845974 C184.025509,191.739969 184.343525,191.395451 184.343525,190.812421 L184.343525,190.812421 L184.343525,181.589944 C184.343525,181.324931 184.25077,181.099669 184.065261,180.91416 C183.879751,180.72865 183.654489,180.635895 183.389476,180.635895 L183.389476,180.635895 L180.447824,180.635895 C178.009698,180.635895 176.790635,179.125317 176.790635,176.104161 L176.790635,176.104161 L176.790635,161.634413 C176.790635,161.3694 176.923142,161.236893 177.188155,161.236893 L177.188155,161.236893 L184.423029,161.236893 C184.688043,161.236893 184.913304,161.144138 185.098814,160.958628 C185.284324,160.773119 185.377078,160.547857 185.377078,160.282844 L185.377078,160.282844 L185.377078,151.616896 C185.377078,151.351882 185.284324,151.12662 185.098814,150.941111 C184.913304,150.755601 184.688043,150.662846 184.423029,150.662846 L184.423029,150.662846 L177.188155,150.662846 C176.923142,150.662846 176.790635,150.53034 176.790635,150.265326 L176.790635,150.265326 L176.790635,140.645329 C176.790635,140.380315 176.69788,140.155054 176.51237,139.969544 C176.326861,139.784034 176.101599,139.69128 175.836585,139.69128 L175.836585,139.69128 L165.103531,139.69128 C164.838517,139.69128 164.613256,139.784034 164.427746,139.969544 C164.242236,140.155054 164.149482,140.380315 164.149482,140.645329 L164.149482,140.645329 L164.149482,150.265326 C164.149482,150.53034 164.016975,150.662846 163.751961,150.662846 L163.751961,150.662846 L159.220227,150.662846 C158.955213,150.662846 158.729952,150.755601 158.544442,150.941111 C158.358932,151.12662 158.266178,151.351882 158.266178,151.616896 L158.266178,151.616896 L158.266178,160.282844 C158.266178,160.547857 158.358932,160.773119 158.544442,160.958628 C158.729952,161.144138 158.955213,161.236893 159.220227,161.236893 L159.220227,161.236893 L163.751961,161.236893 C164.016975,161.236893 164.149482,161.3694 164.149482,161.634413 L164.149482,161.634413 L164.149482,181.51044 C164.202484,185.591651 165.342043,188.361044 167.568158,189.81862 C169.794273,191.276195 173.21295,192.004983 177.824188,192.004983 Z M216.357179,174.355071 C216.622193,174.355071 216.847455,174.262316 217.032964,174.076806 C217.218474,173.891297 217.311228,173.666035 217.311228,173.401021 L217.311228,173.401021 L217.311228,164.019537 C217.311228,163.754523 217.218474,163.529261 217.032964,163.343752 C216.847455,163.158242 216.622193,163.065487 216.357179,163.065487 L216.357179,163.065487 L189.325782,163.065487 C189.060769,163.065487 188.835507,163.158242 188.649998,163.343752 C188.464488,163.529261 188.371733,163.754523 188.371733,164.019537 L188.371733,164.019537 L188.371733,173.401021 C188.371733,173.666035 188.464488,173.891297 188.649998,174.076806 C188.835507,174.262316 189.060769,174.355071 189.325782,174.355071 L189.325782,174.355071 L216.357179,174.355071 Z M242.487529,192.402503 C245.720696,192.402503 248.7021,191.872476 251.431741,190.812421 C254.161383,189.752366 256.453751,188.215287 258.308847,186.201183 C258.520858,185.989172 258.626863,185.777161 258.626863,185.56515 C258.626863,185.300136 258.520858,185.088125 258.308847,184.929117 L258.308847,184.929117 L252.187031,177.932756 C252.028022,177.720745 251.816011,177.614739 251.550998,177.614739 C251.285984,177.614739 251.047472,177.747246 250.835461,178.01226 C248.927362,180.185372 246.303727,181.271928 242.964554,181.271928 C241.109458,181.271928 239.545877,180.92741 238.273812,180.238375 C237.001746,179.549339 236.047697,178.648292 235.411664,177.535235 C234.987642,176.581186 234.722628,175.812646 234.616623,175.229616 C234.56362,175.12361 234.590121,175.030856 234.696127,174.951351 C234.802132,174.871847 234.908138,174.832095 235.014143,174.832095 L235.014143,174.832095 L259.262896,174.832095 C259.898929,174.832095 260.243447,174.514079 260.29645,173.878046 C260.402455,171.280912 260.322951,169.187304 260.057937,167.597221 C259.52791,164.205046 258.401602,161.170639 256.679013,158.494001 C254.956424,155.817363 252.717058,153.723755 249.960915,152.213177 C247.204773,150.702599 244.077611,149.947309 240.579431,149.947309 C236.233206,149.947309 232.483262,151.073618 229.329599,153.326234 C226.175937,155.57885 223.910069,158.66626 222.531998,162.588463 C221.683954,165.132594 221.259933,167.782731 221.259933,170.538873 C221.259933,174.514079 221.816461,177.82675 222.929519,180.476887 C224.413595,184.240081 226.838471,187.168483 230.204145,189.262091 C233.569819,191.355699 237.66428,192.402503 242.487529,192.402503 Z M246.303727,167.279205 L235.014143,167.279205 C234.696127,167.279205 234.590121,167.146698 234.696127,166.881684 C234.749129,166.351657 234.881636,165.795128 235.093647,165.212098 C235.994694,162.614964 237.823288,161.316397 240.579431,161.316397 C242.063507,161.316397 243.295821,161.660915 244.276372,162.34995 C245.256922,163.038986 245.932707,164.046038 246.303727,165.371106 C246.515737,166.007139 246.621743,166.537167 246.621743,166.961189 C246.621743,167.1732 246.515737,167.279205 246.303727,167.279205 L246.303727,167.279205 Z M277.283827,191.76647 C277.548841,191.76647 277.774103,191.673716 277.959612,191.488206 C278.145122,191.302696 278.237877,191.077435 278.237877,190.812421 L278.237877,190.812421 L278.237877,167.517717 C278.237877,165.662622 278.741403,164.165294 279.748455,163.025735 C280.755507,161.886176 282.080575,161.316397 283.72366,161.316397 C285.313742,161.316397 286.612309,161.899427 287.619361,163.065487 C288.626413,164.231548 289.129939,165.715624 289.129939,167.517717 L289.129939,167.517717 L289.129939,190.812421 C289.129939,191.077435 289.222694,191.302696 289.408204,191.488206 C289.593713,191.673716 289.818975,191.76647 290.083989,191.76647 L290.083989,191.76647 L301.373572,191.76647 C301.638586,191.76647 301.863847,191.673716 302.049357,191.488206 C302.234866,191.302696 302.327621,191.077435 302.327621,190.812421 L302.327621,190.812421 L302.327621,164.655569 C302.327621,160.150337 301.002553,156.585903 298.352416,153.962267 C295.702279,151.338631 292.310104,150.026814 288.17589,150.026814 C283.829665,150.026814 280.649501,151.590394 278.635397,154.717556 C278.529392,154.876564 278.436637,154.942818 278.357133,154.916316 C278.277629,154.889815 278.237877,154.770559 278.237877,154.558548 L278.237877,154.558548 L278.237877,151.616896 C278.237877,151.351882 278.145122,151.12662 277.959612,150.941111 C277.774103,150.755601 277.548841,150.662846 277.283827,150.662846 L277.283827,150.662846 L265.994244,150.662846 C265.72923,150.662846 265.503969,150.755601 265.318459,150.941111 C265.132949,151.12662 265.040195,151.351882 265.040195,151.616896 L265.040195,151.616896 L265.040195,190.812421 C265.040195,191.077435 265.132949,191.302696 265.318459,191.488206 C265.503969,191.673716 265.72923,191.76647 265.994244,191.76647 L265.994244,191.76647 L277.283827,191.76647 Z M323.846733,192.402503 C327.821939,192.402503 330.869596,190.944928 332.989706,188.029777 C333.095711,187.923772 333.201717,187.88402 333.307722,187.910521 C333.413728,187.937022 333.46673,188.029777 333.46673,188.188785 L333.46673,188.188785 L333.46673,190.812421 C333.46673,191.077435 333.559485,191.302696 333.744995,191.488206 C333.930504,191.673716 334.155766,191.76647 334.42078,191.76647 L334.42078,191.76647 L345.710363,191.76647 C345.975377,191.76647 346.200638,191.673716 346.386148,191.488206 C346.571657,191.302696 346.664412,191.077435 346.664412,190.812421 L346.664412,190.812421 L346.664412,137.067644 C346.664412,136.80263 346.571657,136.577369 346.386148,136.391859 C346.200638,136.206349 345.975377,136.113595 345.710363,136.113595 L345.710363,136.113595 L334.42078,136.113595 C334.155766,136.113595 333.930504,136.206349 333.744995,136.391859 C333.559485,136.577369 333.46673,136.80263 333.46673,137.067644 L333.46673,137.067644 L333.46673,153.604498 C333.46673,153.763507 333.413728,153.869512 333.307722,153.922515 C333.201717,153.975518 333.095711,153.922515 332.989706,153.763507 C331.028604,151.272378 328.139955,150.026814 324.323758,150.026814 C320.507561,150.026814 317.261143,151.033866 314.584505,153.04797 C311.907866,155.062074 309.960016,157.712211 308.740953,160.99838 C307.627895,163.966534 307.071366,167.305706 307.071366,171.015898 C307.071366,174.302068 307.495388,177.376227 308.343432,180.238375 C309.509492,184.001569 311.483844,186.969722 314.266488,189.142835 C317.049132,191.315947 320.242547,192.402503 323.846733,192.402503 Z M327.26541,181.11292 C325.039295,181.11292 323.369709,180.105868 322.256651,178.091764 C321.302602,176.342673 320.825577,174.063556 320.825577,171.25441 C320.825577,168.33926 321.355604,165.980638 322.415659,164.178545 C323.475714,162.270446 325.092298,161.316397 327.26541,161.316397 C329.279514,161.316397 330.843095,162.243945 331.956152,164.099041 C332.963204,165.795128 333.46673,168.180252 333.46673,171.25441 C333.46673,174.063556 333.016207,176.316172 332.11516,178.01226 C331.002103,180.079366 329.385519,181.11292 327.26541,181.11292 Z M389.941148,191.76647 C394.075362,191.76647 397.732551,191.050933 400.912715,189.619859 C404.092879,188.188785 406.557507,186.14818 408.306597,183.498043 C410.055688,180.847906 410.930233,177.800249 410.930233,174.355071 L410.930233,174.355071 L410.930233,153.524994 C410.930233,150.079816 410.055688,147.032159 408.306597,144.382022 C406.557507,141.731885 404.092879,139.69128 400.912715,138.260206 C397.732551,136.829132 394.075362,136.113595 389.941148,136.113595 L389.941148,136.113595 L369.667601,136.113595 C369.402587,136.113595 369.177325,136.206349 368.991816,136.391859 C368.806306,136.577369 368.713551,136.80263 368.713551,137.067644 L368.713551,137.067644 L368.713551,190.812421 C368.713551,191.077435 368.806306,191.302696 368.991816,191.488206 C369.177325,191.673716 369.402587,191.76647 369.667601,191.76647 L369.667601,191.76647 L389.941148,191.76647 Z M390.497677,180.476887 L382.308754,180.476887 C382.04374,180.476887 381.911233,180.34438 381.911233,180.079366 L381.911233,180.079366 L381.911233,147.800699 C381.911233,147.535685 382.04374,147.403178 382.308754,147.403178 L382.308754,147.403178 L390.418173,147.403178 C392.591285,147.403178 394.353626,148.158467 395.705196,149.669045 C397.056766,151.179623 397.732551,153.206978 397.732551,155.751109 L397.732551,155.751109 L397.732551,172.128956 C397.679548,174.673087 396.990513,176.700442 395.665444,178.21102 C394.340376,179.721598 392.617787,180.476887 390.497677,180.476887 L390.497677,180.476887 Z M437.140087,192.402503 C440.373254,192.402503 443.354658,191.872476 446.084299,190.812421 C448.81394,189.752366 451.106309,188.215287 452.961405,186.201183 C453.173415,185.989172 453.279421,185.777161 453.279421,185.56515 C453.279421,185.300136 453.173415,185.088125 452.961405,184.929117 L452.961405,184.929117 L446.839588,177.932756 C446.68058,177.720745 446.468569,177.614739 446.203555,177.614739 C445.938542,177.614739 445.700029,177.747246 445.488018,178.01226 C443.57992,180.185372 440.956284,181.271928 437.617112,181.271928 C435.762016,181.271928 434.198435,180.92741 432.926369,180.238375 C431.654304,179.549339 430.700254,178.648292 430.064221,177.535235 C429.6402,176.581186 429.375186,175.812646 429.26918,175.229616 C429.216178,175.12361 429.242679,175.030856 429.348684,174.951351 C429.45469,174.871847 429.560695,174.832095 429.666701,174.832095 L429.666701,174.832095 L453.915454,174.832095 C454.551487,174.832095 454.896004,174.514079 454.949007,173.878046 C455.055013,171.280912 454.975509,169.187304 454.710495,167.597221 C454.180468,164.205046 453.054159,161.170639 451.33157,158.494001 C449.608981,155.817363 447.369616,153.723755 444.613473,152.213177 C441.857331,150.702599 438.730169,149.947309 435.231988,149.947309 C430.885764,149.947309 427.13582,151.073618 423.982157,153.326234 C420.828494,155.57885 418.562627,158.66626 417.184556,162.588463 C416.336512,165.132594 415.91249,167.782731 415.91249,170.538873 C415.91249,174.514079 416.469019,177.82675 417.582076,180.476887 C419.066153,184.240081 421.491028,187.168483 424.856702,189.262091 C428.222376,191.355699 432.316838,192.402503 437.140087,192.402503 Z M440.956284,167.279205 L429.666701,167.279205 C429.348684,167.279205 429.242679,167.146698 429.348684,166.881684 C429.401687,166.351657 429.534194,165.795128 429.746205,165.212098 C430.647252,162.614964 432.475846,161.316397 435.231988,161.316397 C436.716065,161.316397 437.948379,161.660915 438.928929,162.34995 C439.90948,163.038986 440.585265,164.046038 440.956284,165.371106 C441.168295,166.007139 441.274301,166.537167 441.274301,166.961189 C441.274301,167.1732 441.168295,167.279205 440.956284,167.279205 L440.956284,167.279205 Z M481.397374,191.76647 C481.927401,191.76647 482.271919,191.501457 482.430927,190.971429 L482.430927,190.971429 L494.833568,151.855408 C494.939574,151.484389 494.913072,151.206125 494.754064,151.020615 C494.595056,150.835105 494.356543,150.742351 494.038527,150.742351 L494.038527,150.742351 L481.71539,150.583342 C481.13236,150.583342 480.761341,150.848356 480.602333,151.378383 L480.602333,151.378383 L475.275558,173.242013 C475.222555,173.401021 475.143051,173.480525 475.037045,173.480525 C474.93104,173.480525 474.851536,173.401021 474.798533,173.242013 L474.798533,173.242013 L469.551262,151.378383 C469.392254,150.848356 469.021234,150.583342 468.438204,150.583342 L468.438204,150.583342 L456.035563,150.583342 C455.452533,150.583342 455.161018,150.821855 455.161018,151.298879 C455.161018,151.457888 455.18752,151.590394 455.240522,151.6964 L455.240522,151.6964 L467.722667,190.971429 C467.881675,191.501457 468.226193,191.76647 468.756221,191.76647 L468.756221,191.76647 L481.397374,191.76647 Z M516.511688,192.402503 C519.744855,192.402503 522.726259,191.872476 525.4559,190.812421 C528.185541,189.752366 530.47791,188.215287 532.333006,186.201183 C532.545017,185.989172 532.651022,185.777161 532.651022,185.56515 C532.651022,185.300136 532.545017,185.088125 532.333006,184.929117 L532.333006,184.929117 L526.211189,177.932756 C526.052181,177.720745 525.84017,177.614739 525.575156,177.614739 C525.310143,177.614739 525.07163,177.747246 524.85962,178.01226 C522.951521,180.185372 520.327885,181.271928 516.988713,181.271928 C515.133617,181.271928 513.570036,180.92741 512.29797,180.238375 C511.025905,179.549339 510.071855,178.648292 509.435823,177.535235 C509.011801,176.581186 508.746787,175.812646 508.640781,175.229616 C508.587779,175.12361 508.61428,175.030856 508.720286,174.951351 C508.826291,174.871847 508.932297,174.832095 509.038302,174.832095 L509.038302,174.832095 L533.287055,174.832095 C533.923088,174.832095 534.267606,174.514079 534.320608,173.878046 C534.426614,171.280912 534.34711,169.187304 534.082096,167.597221 C533.552069,164.205046 532.42576,161.170639 530.703171,158.494001 C528.980582,155.817363 526.741217,153.723755 523.985074,152.213177 C521.228932,150.702599 518.10177,149.947309 514.60359,149.947309 C510.257365,149.947309 506.507421,151.073618 503.353758,153.326234 C500.200095,155.57885 497.934228,158.66626 496.556157,162.588463 C495.708113,165.132594 495.284091,167.782731 495.284091,170.538873 C495.284091,174.514079 495.84062,177.82675 496.953678,180.476887 C498.437754,184.240081 500.86263,187.168483 504.228303,189.262091 C507.593977,191.355699 511.688439,192.402503 516.511688,192.402503 Z M520.327885,167.279205 L509.038302,167.279205 C508.720286,167.279205 508.61428,167.146698 508.720286,166.881684 C508.773288,166.351657 508.905795,165.795128 509.117806,165.212098 C510.018853,162.614964 511.847447,161.316397 514.60359,161.316397 C516.087666,161.316397 517.31998,161.660915 518.300531,162.34995 C519.281081,163.038986 519.956866,164.046038 520.327885,165.371106 C520.539896,166.007139 520.645902,166.537167 520.645902,166.961189 C520.645902,167.1732 520.539896,167.279205 520.327885,167.279205 L520.327885,167.279205 Z M551.307986,191.76647 C551.573,191.76647 551.798261,191.673716 551.983771,191.488206 C552.169281,191.302696 552.262035,191.077435 552.262035,190.812421 L552.262035,190.812421 L552.262035,137.067644 C552.262035,136.80263 552.169281,136.577369 551.983771,136.391859 C551.798261,136.206349 551.573,136.113595 551.307986,136.113595 L551.307986,136.113595 L540.018403,136.113595 C539.753389,136.113595 539.528127,136.206349 539.342618,136.391859 C539.157108,136.577369 539.064353,136.80263 539.064353,137.067644 L539.064353,137.067644 L539.064353,190.812421 C539.064353,191.077435 539.157108,191.302696 539.342618,191.488206 C539.528127,191.673716 539.753389,191.76647 540.018403,191.76647 L540.018403,191.76647 L551.307986,191.76647 Z M577.040816,192.402503 C581.864065,192.402503 585.945276,191.103936 589.284448,188.506802 C592.623621,185.909668 594.849736,182.384986 595.962793,177.932756 C596.545824,175.70664 596.837339,173.37452 596.837339,170.936394 C596.837339,168.233254 596.466319,165.689123 595.724281,163.304 C594.452215,159.169786 592.199599,155.923368 588.966432,153.564746 C585.733265,151.206125 581.784561,150.026814 577.12032,150.026814 C572.403076,150.026814 568.388119,151.206125 565.075447,153.564746 C561.762776,155.923368 559.496909,159.196287 558.277846,163.383504 C557.588811,165.609619 557.244293,168.180252 557.244293,171.095402 C557.244293,173.692536 557.562309,176.07766 558.198342,178.250772 C559.3114,182.596997 561.537515,186.042175 564.876687,188.586306 C568.21586,191.130437 572.270569,192.402503 577.040816,192.402503 Z M577.040816,181.11292 C575.503736,181.11292 574.21842,180.622644 573.184866,179.642094 C572.151313,178.661543 571.422525,177.323224 570.998504,175.627136 C570.680487,174.249065 570.521479,172.738487 570.521479,171.095402 C570.521479,169.293309 570.680487,167.75623 570.998504,166.484164 C571.952553,163.038986 573.966657,161.316397 577.040816,161.316397 C578.577895,161.316397 579.849961,161.76692 580.857013,162.667967 C581.864065,163.569013 582.579602,164.841079 583.003624,166.484164 C583.374643,167.968241 583.560153,169.50532 583.560153,171.095402 C583.560153,172.738487 583.401144,174.249065 583.083128,175.627136 C582.606103,177.323224 581.864065,178.661543 580.857013,179.642094 C579.849961,180.622644 578.577895,181.11292 577.040816,181.11292 Z M614.460749,206.315722 C614.725763,206.315722 614.951025,206.222967 615.136534,206.037458 C615.322044,205.851948 615.414798,205.626686 615.414798,205.361673 L615.414798,205.361673 L615.414798,188.824818 C615.414798,188.66581 615.467801,188.559805 615.573807,188.506802 C615.679812,188.453799 615.785818,188.506802 615.891823,188.66581 C617.852924,191.156939 620.741574,192.402503 624.557771,192.402503 C628.373968,192.402503 631.620386,191.3822 634.297024,189.341595 C636.973662,187.30099 638.921513,184.637602 640.140576,181.351432 C641.253634,178.436282 641.810162,175.097109 641.810162,171.333915 C641.810162,168.047745 641.38614,164.973586 640.538097,162.111438 C639.319034,158.348244 637.331431,155.393341 634.575289,153.24673 C631.819146,151.100119 628.638982,150.026814 625.034796,150.026814 C621.05959,150.026814 618.011933,151.484389 615.891823,154.39954 C615.785818,154.505545 615.679812,154.545297 615.573807,154.518796 C615.467801,154.492294 615.414798,154.39954 615.414798,154.240531 L615.414798,154.240531 L615.414798,151.616896 C615.414798,151.351882 615.322044,151.12662 615.136534,150.941111 C614.951025,150.755601 614.725763,150.662846 614.460749,150.662846 L614.460749,150.662846 L603.171166,150.662846 C602.906152,150.662846 602.680891,150.755601 602.495381,150.941111 C602.309871,151.12662 602.217117,151.351882 602.217117,151.616896 L602.217117,151.616896 L602.217117,205.361673 C602.217117,205.626686 602.309871,205.851948 602.495381,206.037458 C602.680891,206.222967 602.906152,206.315722 603.171166,206.315722 L603.171166,206.315722 L614.460749,206.315722 Z M621.616119,181.11292 C619.602015,181.11292 618.038434,180.185372 616.925377,178.330276 C615.918325,176.528183 615.414798,174.14306 615.414798,171.174906 C615.414798,168.418764 615.865322,166.139646 616.766368,164.337553 C617.879426,162.323449 619.496009,161.316397 621.616119,161.316397 C623.842234,161.316397 625.51182,162.323449 626.624878,164.337553 C627.578927,165.980638 628.055952,168.233254 628.055952,171.095402 C628.055952,174.063556 627.525924,176.448679 626.46587,178.250772 C625.405815,180.158871 623.789231,181.11292 621.616119,181.11292 Z M667.30448,192.402503 C670.537647,192.402503 673.519051,191.872476 676.248692,190.812421 C678.978333,189.752366 681.270701,188.215287 683.125797,186.201183 C683.337808,185.989172 683.443814,185.777161 683.443814,185.56515 C683.443814,185.300136 683.337808,185.088125 683.125797,184.929117 L683.125797,184.929117 L677.003981,177.932756 C676.844973,177.720745 676.632962,177.614739 676.367948,177.614739 C676.102934,177.614739 675.864422,177.747246 675.652411,178.01226 C673.744312,180.185372 671.120677,181.271928 667.781504,181.271928 C665.926408,181.271928 664.362828,180.92741 663.090762,180.238375 C661.818696,179.549339 660.864647,178.648292 660.228614,177.535235 C659.804592,176.581186 659.539578,175.812646 659.433573,175.229616 C659.38057,175.12361 659.407072,175.030856 659.513077,174.951351 C659.619083,174.871847 659.725088,174.832095 659.831093,174.832095 L659.831093,174.832095 L684.079846,174.832095 C684.715879,174.832095 685.060397,174.514079 685.1134,173.878046 C685.219405,171.280912 685.139901,169.187304 684.874888,167.597221 C684.34486,164.205046 683.218552,161.170639 681.495963,158.494001 C679.773374,155.817363 677.534008,153.723755 674.777866,152.213177 C672.021723,150.702599 668.894562,149.947309 665.396381,149.947309 C661.050156,149.947309 657.300213,151.073618 654.14655,153.326234 C650.992887,155.57885 648.72702,158.66626 647.348949,162.588463 C646.500905,165.132594 646.076883,167.782731 646.076883,170.538873 C646.076883,174.514079 646.633412,177.82675 647.746469,180.476887 C649.230546,184.240081 651.655421,187.168483 655.021095,189.262091 C658.386769,191.355699 662.48123,192.402503 667.30448,192.402503 Z M671.120677,167.279205 L659.831093,167.279205 C659.513077,167.279205 659.407072,167.146698 659.513077,166.881684 C659.56608,166.351657 659.698587,165.795128 659.910598,165.212098 C660.811644,162.614964 662.640239,161.316397 665.396381,161.316397 C666.880458,161.316397 668.112771,161.660915 669.093322,162.34995 C670.073873,163.038986 670.749658,164.046038 671.120677,165.371106 C671.332688,166.007139 671.438693,166.537167 671.438693,166.961189 C671.438693,167.1732 671.332688,167.279205 671.120677,167.279205 L671.120677,167.279205 Z M702.100778,191.76647 C702.365791,191.76647 702.591053,191.673716 702.776562,191.488206 C702.962072,191.302696 703.054827,191.077435 703.054827,190.812421 L703.054827,190.812421 L703.054827,169.902841 C703.054827,168.15375 703.624606,166.749178 704.764165,165.689123 C705.903724,164.629068 707.295046,163.993035 708.938131,163.781024 C709.415156,163.675019 710.104191,163.622016 711.005238,163.622016 C711.853281,163.622016 712.754328,163.728022 713.708377,163.940032 C714.397413,164.205046 714.768432,164.019537 714.821435,163.383504 L714.821435,163.383504 L716.650029,152.332433 C716.756035,151.802405 716.597027,151.404885 716.173005,151.139871 C715.11295,150.450836 713.628873,150.106318 711.720775,150.106318 C708.328599,150.106318 705.572457,151.51089 703.452347,154.320035 C703.399345,154.479044 703.319841,154.532046 703.213835,154.479044 C703.10783,154.426041 703.054827,154.320035 703.054827,154.161027 L703.054827,154.161027 L703.054827,151.616896 C703.054827,151.351882 702.962072,151.12662 702.776562,150.941111 C702.591053,150.755601 702.365791,150.662846 702.100778,150.662846 L702.100778,150.662846 L690.811194,150.662846 C690.546181,150.662846 690.320919,150.755601 690.135409,150.941111 C689.9499,151.12662 689.857145,151.351882 689.857145,151.616896 L689.857145,151.616896 L689.857145,190.812421 C689.857145,191.077435 689.9499,191.302696 690.135409,191.488206 C690.320919,191.673716 690.546181,191.76647 690.811194,191.76647 L690.811194,191.76647 L702.100778,191.76647 Z" id="UI/UXDesigner&amp;Front-endDeveloper" fill="#6D55F5"></path>
                <path d="M9.76722148,18.4245298 C13.4677635,18.4245298 15.6828767,16.443958 15.6828767,13.1082581 C15.6828767,10.8410246 14.6665307,9.32953561 12.712019,8.62591142 C13.9889666,7.89622707 14.718651,6.54109899 14.718651,4.84718889 C14.718651,1.98057181 12.5817183,0.260601553 8.95935666,0.260601553 L2.62673892,0.260601553 L2.62673892,18.4245298 L9.76722148,18.4245298 Z M8.95935666,7.47926458 L5.88425833,7.47926458 L5.88425833,3.25751942 L8.95935666,3.25751942 C10.5490261,3.25751942 11.4611316,4.03932408 11.4611316,5.42051231 C11.4611316,6.77564039 10.6011465,7.47926458 8.95935666,7.47926458 Z M9.50661993,15.427612 L5.88425833,15.427612 L5.88425833,10.4761824 L9.50661993,10.4761824 C11.4090113,10.4761824 12.4253573,11.3101074 12.4253573,12.8476566 C12.4253573,14.4373261 11.3308308,15.427612 9.50661993,15.427612 Z M23.8787957,18.4245298 L23.8787957,10.8931449 L26.1720893,10.8931449 L30.5241353,18.4245298 L34.3028578,18.4245298 L29.4035486,10.5022426 C31.5665415,9.77255825 32.7653086,8.10470831 32.7653086,5.49869278 C32.7653086,2.24117336 30.9150376,0.260601553 26.5890518,0.260601553 L20.6473364,0.260601553 L20.6473364,18.4245298 L23.8787957,18.4245298 Z M26.2502698,7.89622707 L23.8787957,7.89622707 L23.8787957,3.25751942 L26.2502698,3.25751942 C28.3611424,3.25751942 29.5077892,3.77872252 29.5077892,5.55081309 C29.5077892,7.32290365 28.3611424,7.89622707 26.2502698,7.89622707 Z M41.7430322,18.4245298 L41.7430322,0.260601553 L38.4855128,0.260601553 L38.4855128,18.4245298 L41.7430322,18.4245298 Z M49.3135074,18.4245298 L50.6946956,14.6718675 L57.809118,14.6718675 L59.1903062,18.4245298 L62.7344874,18.4245298 L55.4897642,0.260601553 L53.0401096,0.260601553 L45.7693262,18.4245298 L49.3135074,18.4245298 Z M56.7145915,11.6749496 L51.8152823,11.6749496 L54.2649369,5.05567014 L56.7145915,11.6749496 Z M70.0183008,18.4245298 L70.0183008,5.86353495 L77.6278662,18.4245298 L81.0156864,18.4245298 L81.0156864,0.260601553 L77.758167,0.260601553 L77.758167,12.7694761 L70.1225415,0.260601553 L66.7607814,0.260601553 L66.7607814,18.4245298 L70.0183008,18.4245298 Z M98.4499304,18.4245298 L98.4499304,4.84718889 L102.958337,16.8348604 L106.111616,16.8348604 L110.620023,4.84718889 L110.620023,18.4245298 L113.877542,18.4245298 L113.877542,0.260601553 L109.212775,0.260601553 L104.521947,13.0561378 L99.8571788,0.260601553 L95.192411,0.260601553 L95.192411,18.4245298 L98.4499304,18.4245298 Z M121.448018,18.4245298 L122.829206,14.6718675 L129.943628,14.6718675 L131.324816,18.4245298 L134.868998,18.4245298 L127.624274,0.260601553 L125.17462,0.260601553 L117.903836,18.4245298 L121.448018,18.4245298 Z M128.849102,11.6749496 L123.949792,11.6749496 L126.399447,5.05567014 L128.849102,11.6749496 Z M142.152811,18.4245298 L142.152811,0.260601553 L138.895292,0.260601553 L138.895292,18.4245298 L142.152811,18.4245298 Z M160.46007,18.4245298 L160.46007,15.427612 L151.625678,15.427612 L151.625678,10.5804231 L159.834627,10.5804231 L159.834627,7.5835052 L151.625678,7.5835052 L151.625678,3.25751942 L160.46007,3.25751942 L160.46007,0.260601553 L148.368158,0.260601553 L148.368158,18.4245298 L160.46007,18.4245298 Z M169.125072,18.4245298 L169.125072,10.8931449 L171.418366,10.8931449 L175.770412,18.4245298 L179.549134,18.4245298 L174.649825,10.5022426 C176.812818,9.77255825 178.011585,8.10470831 178.011585,5.49869278 C178.011585,2.24117336 176.161314,0.260601553 171.835328,0.260601553 L165.893613,0.260601553 L165.893613,18.4245298 L169.125072,18.4245298 Z M171.496546,7.89622707 L169.125072,7.89622707 L169.125072,3.25751942 L171.496546,3.25751942 C173.607419,3.25751942 174.754065,3.77872252 174.754065,5.55081309 C174.754065,7.32290365 173.607419,7.89622707 171.496546,7.89622707 Z M195.888852,18.6851314 C199.667574,18.6851314 202.012988,16.1833565 202.012988,12.1179722 L202.012988,0.260601553 L191.901648,0.260601553 L191.901648,3.25751942 L198.755469,3.25751942 L198.755469,11.9355511 C198.755469,14.4633862 197.843363,15.6621534 195.888852,15.6621534 C194.038581,15.6621534 193.100415,14.6197471 192.944054,12.4046339 L189.738655,12.7694761 C189.999256,16.443958 192.34467,18.6851314 195.888852,18.6851314 Z M214.430652,18.6851314 C219.01724,18.6851314 221.388714,16.3136572 221.388714,11.7270699 L221.388714,0.260601553 L218.131194,0.260601553 L218.131194,11.4925285 C218.131194,14.4112659 217.114848,15.5318526 214.430652,15.5318526 C211.746456,15.5318526 210.75617,14.4373261 210.75617,11.4925285 L210.75617,0.260601553 L207.498651,0.260601553 L207.498651,11.8573707 C207.498651,16.3657776 209.870125,18.6851314 214.430652,18.6851314 Z M230.470678,18.4245298 L230.470678,5.86353495 L238.080243,18.4245298 L241.468063,18.4245298 L241.468063,0.260601553 L238.210544,0.260601553 L238.210544,12.7694761 L230.574918,0.260601553 L227.213158,0.260601553 L227.213158,18.4245298 L230.470678,18.4245298 Z M250.94093,18.4245298 L250.94093,0.260601553 L247.68341,0.260601553 L247.68341,18.4245298 L250.94093,18.4245298 Z M264.531301,18.6851314 C269.691212,18.6851314 273.209333,14.9064089 273.209333,9.35559577 C273.209333,3.77872252 269.717272,1.42108547e-14 264.531301,1.42108547e-14 C259.37139,1.42108547e-14 255.853269,3.77872252 255.853269,9.35559577 C255.853269,14.9064089 259.37139,18.6851314 264.531301,18.6851314 Z M264.531301,15.5839729 C261.221661,15.5839729 259.110789,13.1603784 259.110789,9.35559577 C259.110789,5.52475293 261.221661,3.10115849 264.531301,3.10115849 C267.840941,3.10115849 269.951813,5.55081309 269.951813,9.35559577 C269.951813,13.1343183 267.840941,15.5839729 264.531301,15.5839729 Z M281.353131,18.4245298 L281.353131,10.8931449 L283.646425,10.8931449 L287.998471,18.4245298 L291.777193,18.4245298 L286.877884,10.5022426 C289.040877,9.77255825 290.239644,8.10470831 290.239644,5.49869278 C290.239644,2.24117336 288.389373,0.260601553 284.063387,0.260601553 L278.121672,0.260601553 L278.121672,18.4245298 L281.353131,18.4245298 Z M283.724605,7.89622707 L281.353131,7.89622707 L281.353131,3.25751942 L283.724605,3.25751942 C285.835478,3.25751942 286.982125,3.77872252 286.982125,5.55081309 C286.982125,7.32290365 285.835478,7.89622707 283.724605,7.89622707 Z" id="BRIANMAIERJUNIOR" fill="#DEE6E7"></path>
            </g>
            <g id="Group-5" transform="translate(0.000000, 242.424530)">
                <g id="Group-2">
                    <path d="M7.29684997,18.4022846 L7.29634676,18.2633482 C7.29410519,17.8341995 7.28513888,16.7216474 7.28513888,16.0038757 C7.28513888,16.0038757 4.5507704,16.5898118 3.97654539,14.8398236 C3.97654539,14.8398236 3.53125684,13.7030847 2.89061811,13.4101166 C2.89061811,13.4101166 1.99607373,12.7968292 2.9531027,12.8085785 C2.9531027,12.8085785 3.92577189,12.8867033 4.46093449,13.8163809 C5.31637832,15.3241746 6.74997628,14.8905971 7.30856107,14.6327624 C7.39843512,14.0077638 7.65234076,13.5741864 7.93355958,13.3163898 C5.74999392,13.0741952 3.54685891,12.7577668 3.54685891,9 C3.54685891,7.92577761 3.84375609,7.38668588 4.4687546,6.69920278 C4.36716946,6.44529713 4.035139,5.39843226 4.5703016,4.04685009 C5.38672117,3.79294445 7.26560768,5.10153508 7.26560768,5.10153508 C8.04685581,4.88280086 8.88669756,4.76950462 9.7187192,4.76950462 C10.5507408,4.76950462 11.3905826,4.88280086 12.1718307,5.10153508 C12.1718307,5.10153508 14.0507554,3.78905347 14.8671368,4.04685009 C15.4022994,5.40232324 15.0702689,6.44529713 14.9687219,6.69920278 C15.5937205,7.39061501 15.9765244,7.92966859 15.9765244,9 C15.9765244,12.7695161 13.6757334,13.0702661 11.4921677,13.3163898 C11.8515495,13.6249599 12.1562286,14.210896 12.1562286,15.1288626 C12.1562286,16.4452733 12.1445176,18.0741833 12.1445176,18.3945027 C12.1445176,18.6484083 12.3241894,18.9569784 12.8202896,18.8671425 C16.7265303,17.570263 19.3749538,13.8632635 19.3749538,9.53122728 C19.3749538,4.11326381 14.980433,0 9.56246957,0 C4.14450611,0 0,4.11326381 0,9.53122728 C0,13.8632635 2.72654837,17.570263 6.62107796,18.8749626 C7.12106914,18.9647985 7.29684997,18.6561903 7.29684997,18.4022846 Z" id="G" fill="#C9510C"></path>
                    <path d="M36.28,16.144 C38.472,16.144 39.656,14.416 39.656,12.048 C39.656,9.504 38.296,7.952 36.28,7.952 C35.304,7.952 34.392,8.352 33.896,8.992 L33.896,4.848 L32.248,4.848 L32.248,16 L33.896,16 L33.896,15.12 C34.44,15.824 35.336,16.144 36.28,16.144 Z M35.912,14.64 C34.424,14.64 33.736,13.536 33.736,12.064 C33.736,10.56 34.456,9.44 35.896,9.44 C37.288,9.44 38.008,10.448 38.008,12.064 C38.008,13.632 37.32,14.64 35.912,14.64 Z M43.714133,16 L43.714133,11.888 C43.714133,10.32 44.402133,9.536 45.586133,9.536 C45.954133,9.536 46.258133,9.632 46.562133,9.808 L47.362133,8.368 C46.882133,8.08 46.418133,7.968 45.906133,7.968 C45.042133,7.968 44.130133,8.416 43.730133,9.408 L43.730133,8.112 L42.066133,8.112 L42.066133,16 L43.714133,16 Z M50.812266,6.576 L50.812266,4.848 L49.052266,4.848 L49.052266,6.576 L50.812266,6.576 Z M50.764266,16 L50.764266,8.112 L49.116266,8.112 L49.116266,16 L50.764266,16 Z M55.846399,16.144 C56.966399,16.144 57.878399,15.68 58.390399,14.88 L58.518399,16 L60.022399,16 L60.022399,11.04 C60.022399,9.12 58.774399,7.968 56.726399,7.968 C55.318399,7.968 54.198399,8.512 53.286399,9.632 L54.486399,10.64 C55.078399,9.824 55.846399,9.408 56.710399,9.408 C57.750399,9.408 58.374399,10.016 58.374399,11.04 L58.374399,11.312 L56.534399,11.312 C55.414399,11.312 54.678399,11.44 54.134399,11.712 C53.430399,12.064 53.046399,12.736 53.046399,13.632 C53.046399,15.136 54.166399,16.144 55.846399,16.144 Z M56.150399,14.752 C55.254399,14.752 54.694399,14.336 54.694399,13.664 C54.694399,13.328 54.806399,13.056 55.046399,12.896 C55.350399,12.656 55.814399,12.576 56.726399,12.576 L58.374399,12.576 L58.374399,12.608 C58.374399,13.856 57.430399,14.752 56.150399,14.752 Z M64.464532,16 L64.464532,12.72 C64.464532,11.04 64.752532,9.408 66.448532,9.408 C67.808532,9.408 67.984532,10.48 67.984532,11.408 L67.984532,16 L69.632532,16 L69.632532,10.992 C69.632532,9.056 68.672532,7.968 66.928532,7.968 C65.904532,7.968 65.008532,8.336 64.464532,9.088 L64.464532,8.112 L62.816532,8.112 L62.816532,16 L64.464532,16 Z M74.138665,16 L74.138665,12.736 C74.138665,11.072 74.250665,9.408 75.834665,9.408 C77.130665,9.408 77.306665,10.656 77.306665,11.52 L77.306665,16 L78.954665,16 L78.954665,12.736 L78.9567144,12.3951394 C78.9771906,10.8642663 79.1770098,9.408 80.666665,9.408 C82.033705,9.408 82.1326234,10.735104 82.1383496,11.4075034 L82.138665,16 L83.786665,16 L83.786665,11.008 C83.786665,9.344 82.970665,7.968 81.066665,7.968 C79.994665,7.968 79.098665,8.384 78.506665,9.52 C78.042665,8.352 77.130665,7.968 76.202665,7.968 C75.386665,7.968 74.570665,8.256 74.058665,9.104 L74.058665,8.112 L72.474665,8.112 L72.490665,16 L74.138665,16 Z M88.676798,16.144 C89.796798,16.144 90.708798,15.68 91.220798,14.88 L91.348798,16 L92.852798,16 L92.852798,11.04 C92.852798,9.12 91.604798,7.968 89.556798,7.968 C88.148798,7.968 87.028798,8.512 86.116798,9.632 L87.316798,10.64 C87.908798,9.824 88.676798,9.408 89.540798,9.408 C90.580798,9.408 91.204798,10.016 91.204798,11.04 L91.204798,11.312 L89.364798,11.312 C88.244798,11.312 87.508798,11.44 86.964798,11.712 C86.260798,12.064 85.876798,12.736 85.876798,13.632 C85.876798,15.136 86.996798,16.144 88.676798,16.144 Z M88.980798,14.752 C88.084798,14.752 87.524798,14.336 87.524798,13.664 C87.524798,13.328 87.636798,13.056 87.876798,12.896 C88.180798,12.656 88.644798,12.576 89.556798,12.576 L91.204798,12.576 L91.204798,12.608 C91.204798,13.856 90.260798,14.752 88.980798,14.752 Z M97.342931,6.576 L97.342931,4.848 L95.582931,4.848 L95.582931,6.576 L97.342931,6.576 Z M97.294931,16 L97.294931,8.112 L95.646931,8.112 L95.646931,16 L97.294931,16 Z M103.449064,16.144 C104.745064,16.144 105.737064,15.728 106.633064,14.752 L105.481064,13.76 C104.889064,14.432 104.233064,14.656 103.465064,14.656 C102.121064,14.656 101.369064,13.84 101.305064,12.576 L106.841064,12.576 C106.873064,12.336 106.889064,12.096 106.889064,11.856 C106.889064,9.792 105.769064,7.968 103.321064,7.968 C100.809064,7.968 99.657064,9.984 99.657064,12.096 C99.657064,14.256 100.841064,16.144 103.449064,16.144 Z M105.305064,11.312 L101.305064,11.312 C101.385064,10.32 102.025064,9.344 103.321064,9.344 C104.489064,9.344 105.273064,10.096 105.305064,11.216 L105.305064,11.312 Z M110.883197,16 L110.883197,11.888 C110.883197,10.32 111.571197,9.536 112.755197,9.536 C113.123197,9.536 113.427197,9.632 113.731197,9.808 L114.531197,8.368 C114.051197,8.08 113.587197,7.968 113.075197,7.968 C112.211197,7.968 111.299197,8.416 110.899197,9.408 L110.899197,8.112 L109.235197,8.112 L109.235197,16 L110.883197,16 Z M117.96533,6.576 L117.96533,4.848 L116.20533,4.848 L116.20533,6.576 L117.96533,6.576 Z M116.17333,19.408 C117.18133,19.408 117.90133,18.8 117.90133,17.44 L117.90133,8.112 L116.26933,8.112 L116.26933,17.344 C116.26933,17.776 116.02933,17.968 115.64533,17.968 C115.45333,17.968 115.22933,17.936 114.98933,17.856 L114.98933,19.184 C115.40533,19.328 115.82133,19.408 116.17333,19.408 Z M122.583463,16 L122.583463,11.888 C122.583463,10.32 123.271463,9.536 124.455463,9.536 C124.823463,9.536 125.127463,9.632 125.431463,9.808 L126.231463,8.368 C125.751463,8.08 125.287463,7.968 124.775463,7.968 C123.911463,7.968 122.999463,8.416 122.599463,9.408 L122.599463,8.112 L120.935463,8.112 L120.935463,16 L122.583463,16 Z" id="brianmaierjr" fill="#FFFFFF"></path>
                </g>
                <g id="Group-3" transform="translate(178.000000, 0.000000)">
                    <path d="M9.6874769,19.3749538 C15.0291847,19.3749538 19.3749538,15.0291847 19.3749538,9.6874769 C19.3749538,4.34576906 15.0291847,0 9.6874769,0 C4.34576906,0 0,4.34576906 0,9.6874769 C0,15.0291847 4.34576906,19.3749538 9.6874769,19.3749538 Z M10.8359269,6.499542 C9.47999601,4.00832174 7.97712331,1.96174154 7.74843276,1.65549837 C10.3724805,1.02298493 13.1377098,1.70512747 15.1726552,3.51054308 C15.0238442,3.7225253 13.7782341,5.39671565 10.8359269,6.499542 Z M1.58763507,8.00539015 C2.12420911,5.4376854 3.85458981,3.3036344 6.16957147,2.21171805 C6.38773349,2.51090405 7.86634477,4.56000195 9.23738185,6.99720622 C5.36680849,8.02507395 1.95773612,8.01027296 1.58763507,8.00539015 Z M17.9610778,9.62190241 C17.6882894,9.56418618 14.9525858,9.00930164 12.1992965,9.35556089 C11.9746113,8.80708502 11.7625528,8.32460326 11.4720643,7.73000782 C14.5314824,6.48092632 15.9180834,4.70339607 16.0925291,4.46741946 C17.2449845,5.87545901 17.9428817,7.66885836 17.9610778,9.62190241 Z M3.54010692,15.2327365 C2.2185082,13.7657982 1.4128842,11.8253807 1.4128842,9.70010352 C1.4128842,9.61549374 1.41456267,9.53126542 1.41711851,9.44722784 C1.77913242,9.45466648 5.78898003,9.50635551 9.92124099,8.26967175 C10.158095,8.7332708 10.3843823,9.20385074 10.5920921,9.67393476 C7.59992695,10.5166757 4.88138942,12.9366757 3.54010692,15.2327365 Z M14.3108027,16.5595232 C14.225964,16.0561751 13.7855583,13.6338863 12.7032931,10.6598028 C15.2962511,10.2447266 17.5743828,10.9241988 17.8574709,11.0135388 C17.4886287,13.3158939 16.1671062,15.3043001 14.3108027,16.5595232 Z M4.60844849,16.2279124 C5.47278053,14.4610251 7.81854673,12.180223 11.1544915,11.042149 C12.3162167,14.0610169 12.7966385,16.5911088 12.9197003,17.3170821 C10.2590698,18.4503878 7.0597671,18.1394526 4.60844849,16.2279124 Z" id="d" fill="#EA4C89"></path>
                    <path d="M37.28,16.144 C39.472,16.144 40.656,14.416 40.656,12.048 C40.656,9.504 39.296,7.952 37.28,7.952 C36.304,7.952 35.392,8.352 34.896,8.992 L34.896,4.848 L33.248,4.848 L33.248,16 L34.896,16 L34.896,15.12 C35.44,15.824 36.336,16.144 37.28,16.144 Z M36.912,14.64 C35.424,14.64 34.736,13.536 34.736,12.064 C34.736,10.56 35.456,9.44 36.896,9.44 C38.288,9.44 39.008,10.448 39.008,12.064 C39.008,13.632 38.32,14.64 36.912,14.64 Z M44.714133,16 L44.714133,11.888 C44.714133,10.32 45.402133,9.536 46.586133,9.536 C46.954133,9.536 47.258133,9.632 47.562133,9.808 L48.362133,8.368 C47.882133,8.08 47.418133,7.968 46.906133,7.968 C46.042133,7.968 45.130133,8.416 44.730133,9.408 L44.730133,8.112 L43.066133,8.112 L43.066133,16 L44.714133,16 Z M51.812266,6.576 L51.812266,4.848 L50.052266,4.848 L50.052266,6.576 L51.812266,6.576 Z M51.764266,16 L51.764266,8.112 L50.116266,8.112 L50.116266,16 L51.764266,16 Z M56.846399,16.144 C57.966399,16.144 58.878399,15.68 59.390399,14.88 L59.518399,16 L61.022399,16 L61.022399,11.04 C61.022399,9.12 59.774399,7.968 57.726399,7.968 C56.318399,7.968 55.198399,8.512 54.286399,9.632 L55.486399,10.64 C56.078399,9.824 56.846399,9.408 57.710399,9.408 C58.750399,9.408 59.374399,10.016 59.374399,11.04 L59.374399,11.312 L57.534399,11.312 C56.414399,11.312 55.678399,11.44 55.134399,11.712 C54.430399,12.064 54.046399,12.736 54.046399,13.632 C54.046399,15.136 55.166399,16.144 56.846399,16.144 Z M57.150399,14.752 C56.254399,14.752 55.694399,14.336 55.694399,13.664 C55.694399,13.328 55.806399,13.056 56.046399,12.896 C56.350399,12.656 56.814399,12.576 57.726399,12.576 L59.374399,12.576 L59.374399,12.608 C59.374399,13.856 58.430399,14.752 57.150399,14.752 Z M65.464532,16 L65.464532,12.72 C65.464532,11.04 65.752532,9.408 67.448532,9.408 C68.808532,9.408 68.984532,10.48 68.984532,11.408 L68.984532,16 L70.632532,16 L70.632532,10.992 C70.632532,9.056 69.672532,7.968 67.928532,7.968 C66.904532,7.968 66.008532,8.336 65.464532,9.088 L65.464532,8.112 L63.816532,8.112 L63.816532,16 L65.464532,16 Z M75.138665,16 L75.138665,12.736 C75.138665,11.072 75.250665,9.408 76.834665,9.408 C78.130665,9.408 78.306665,10.656 78.306665,11.52 L78.306665,16 L79.954665,16 L79.954665,12.736 L79.9567144,12.3951394 C79.9771906,10.8642663 80.1770098,9.408 81.666665,9.408 C83.033705,9.408 83.1326234,10.735104 83.1383496,11.4075034 L83.138665,16 L84.786665,16 L84.786665,11.008 C84.786665,9.344 83.970665,7.968 82.066665,7.968 C80.994665,7.968 80.098665,8.384 79.506665,9.52 C79.042665,8.352 78.130665,7.968 77.202665,7.968 C76.386665,7.968 75.570665,8.256 75.058665,9.104 L75.058665,8.112 L73.474665,8.112 L73.490665,16 L75.138665,16 Z M89.676798,16.144 C90.796798,16.144 91.708798,15.68 92.220798,14.88 L92.348798,16 L93.852798,16 L93.852798,11.04 C93.852798,9.12 92.604798,7.968 90.556798,7.968 C89.148798,7.968 88.028798,8.512 87.116798,9.632 L88.316798,10.64 C88.908798,9.824 89.676798,9.408 90.540798,9.408 C91.580798,9.408 92.204798,10.016 92.204798,11.04 L92.204798,11.312 L90.364798,11.312 C89.244798,11.312 88.508798,11.44 87.964798,11.712 C87.260798,12.064 86.876798,12.736 86.876798,13.632 C86.876798,15.136 87.996798,16.144 89.676798,16.144 Z M89.980798,14.752 C89.084798,14.752 88.524798,14.336 88.524798,13.664 C88.524798,13.328 88.636798,13.056 88.876798,12.896 C89.180798,12.656 89.644798,12.576 90.556798,12.576 L92.204798,12.576 L92.204798,12.608 C92.204798,13.856 91.260798,14.752 89.980798,14.752 Z M98.342931,6.576 L98.342931,4.848 L96.582931,4.848 L96.582931,6.576 L98.342931,6.576 Z M98.294931,16 L98.294931,8.112 L96.646931,8.112 L96.646931,16 L98.294931,16 Z M104.449064,16.144 C105.745064,16.144 106.737064,15.728 107.633064,14.752 L106.481064,13.76 C105.889064,14.432 105.233064,14.656 104.465064,14.656 C103.121064,14.656 102.369064,13.84 102.305064,12.576 L107.841064,12.576 C107.873064,12.336 107.889064,12.096 107.889064,11.856 C107.889064,9.792 106.769064,7.968 104.321064,7.968 C101.809064,7.968 100.657064,9.984 100.657064,12.096 C100.657064,14.256 101.841064,16.144 104.449064,16.144 Z M106.305064,11.312 L102.305064,11.312 C102.385064,10.32 103.025064,9.344 104.321064,9.344 C105.489064,9.344 106.273064,10.096 106.305064,11.216 L106.305064,11.312 Z M111.883197,16 L111.883197,11.888 C111.883197,10.32 112.571197,9.536 113.755197,9.536 C114.123197,9.536 114.427197,9.632 114.731197,9.808 L115.531197,8.368 C115.051197,8.08 114.587197,7.968 114.075197,7.968 C113.211197,7.968 112.299197,8.416 111.899197,9.408 L111.899197,8.112 L110.235197,8.112 L110.235197,16 L111.883197,16 Z M118.96533,6.576 L118.96533,4.848 L117.20533,4.848 L117.20533,6.576 L118.96533,6.576 Z M117.17333,19.408 C118.18133,19.408 118.90133,18.8 118.90133,17.44 L118.90133,8.112 L117.26933,8.112 L117.26933,17.344 C117.26933,17.776 117.02933,17.968 116.64533,17.968 C116.45333,17.968 116.22933,17.936 115.98933,17.856 L115.98933,19.184 C116.40533,19.328 116.82133,19.408 117.17333,19.408 Z M123.583463,16 L123.583463,11.888 C123.583463,10.32 124.271463,9.536 125.455463,9.536 C125.823463,9.536 126.127463,9.632 126.431463,9.808 L127.231463,8.368 C126.751463,8.08 126.287463,7.968 125.775463,7.968 C124.911463,7.968 123.999463,8.416 123.599463,9.408 L123.599463,8.112 L121.935463,8.112 L121.935463,16 L123.583463,16 Z" id="brianmaierjr" fill="#FFFFFF"></path>
                </g>
                <g id="Group-4" transform="translate(357.000000, 0.000000)">
                    <path d="M6.29438807,18.2435907 C13.8324789,18.2435907 17.9568053,11.999938 17.9568053,6.58121161 C17.9568053,6.40356158 17.9568053,6.22583526 17.9441024,6.04818523 C18.7435848,5.4644235 19.4415964,4.74108233 19.999876,3.92893522 C19.2638701,4.24616469 18.4643877,4.47462636 17.6394996,4.5634323 C18.4897173,4.0558499 19.1369173,3.25636755 19.4415201,2.3045647 C18.6546644,2.77411467 17.7663761,3.11674996 16.8400172,3.29439999 C16.0912321,2.49491764 15.0252938,2 13.8450674,2 C11.573535,2 9.74610866,3.84009113 9.74610866,6.09895873 C9.74610866,6.41622635 9.78417925,6.73345582 9.84761751,7.03802052 C6.44667042,6.86033235 3.41365,5.23599998 1.39590884,2.74870885 C1.04053249,3.35783825 0.837552935,4.05581175 0.837552935,4.81722351 C0.837552935,6.23853817 1.56085596,7.49486758 2.66490301,8.23091166 C1.99237348,8.20558213 1.35780011,8.01522919 0.812147112,7.71066449 L0.812147112,7.76139984 C0.812147112,9.75377332 2.22079701,11.4034734 4.09895873,11.7842174 C3.75636159,11.8730233 3.38832047,11.9237968 3.02031751,11.9237968 C2.75378524,11.9237968 2.5,11.8984292 2.24616469,11.8603586 C2.76648816,13.4847291 4.27664691,14.6649173 6.07866745,14.703026 C4.67001755,15.8070731 2.90602945,16.4542731 0.989835287,16.4542731 C0.647199995,16.4542731 0.329970527,16.4415702 0,16.4035377 C1.81472346,17.5709849 3.97204406,18.2435907 6.29438807,18.2435907 Z" id="t" fill="#1DA1F2"></path>
                    <path d="M37.28,16.144 C39.472,16.144 40.656,14.416 40.656,12.048 C40.656,9.504 39.296,7.952 37.28,7.952 C36.304,7.952 35.392,8.352 34.896,8.992 L34.896,4.848 L33.248,4.848 L33.248,16 L34.896,16 L34.896,15.12 C35.44,15.824 36.336,16.144 37.28,16.144 Z M36.912,14.64 C35.424,14.64 34.736,13.536 34.736,12.064 C34.736,10.56 35.456,9.44 36.896,9.44 C38.288,9.44 39.008,10.448 39.008,12.064 C39.008,13.632 38.32,14.64 36.912,14.64 Z M44.714133,16 L44.714133,11.888 C44.714133,10.32 45.402133,9.536 46.586133,9.536 C46.954133,9.536 47.258133,9.632 47.562133,9.808 L48.362133,8.368 C47.882133,8.08 47.418133,7.968 46.906133,7.968 C46.042133,7.968 45.130133,8.416 44.730133,9.408 L44.730133,8.112 L43.066133,8.112 L43.066133,16 L44.714133,16 Z M51.812266,6.576 L51.812266,4.848 L50.052266,4.848 L50.052266,6.576 L51.812266,6.576 Z M51.764266,16 L51.764266,8.112 L50.116266,8.112 L50.116266,16 L51.764266,16 Z M56.846399,16.144 C57.966399,16.144 58.878399,15.68 59.390399,14.88 L59.518399,16 L61.022399,16 L61.022399,11.04 C61.022399,9.12 59.774399,7.968 57.726399,7.968 C56.318399,7.968 55.198399,8.512 54.286399,9.632 L55.486399,10.64 C56.078399,9.824 56.846399,9.408 57.710399,9.408 C58.750399,9.408 59.374399,10.016 59.374399,11.04 L59.374399,11.312 L57.534399,11.312 C56.414399,11.312 55.678399,11.44 55.134399,11.712 C54.430399,12.064 54.046399,12.736 54.046399,13.632 C54.046399,15.136 55.166399,16.144 56.846399,16.144 Z M57.150399,14.752 C56.254399,14.752 55.694399,14.336 55.694399,13.664 C55.694399,13.328 55.806399,13.056 56.046399,12.896 C56.350399,12.656 56.814399,12.576 57.726399,12.576 L59.374399,12.576 L59.374399,12.608 C59.374399,13.856 58.430399,14.752 57.150399,14.752 Z M65.464532,16 L65.464532,12.72 C65.464532,11.04 65.752532,9.408 67.448532,9.408 C68.808532,9.408 68.984532,10.48 68.984532,11.408 L68.984532,16 L70.632532,16 L70.632532,10.992 C70.632532,9.056 69.672532,7.968 67.928532,7.968 C66.904532,7.968 66.008532,8.336 65.464532,9.088 L65.464532,8.112 L63.816532,8.112 L63.816532,16 L65.464532,16 Z M75.138665,16 L75.138665,12.736 C75.138665,11.072 75.250665,9.408 76.834665,9.408 C78.130665,9.408 78.306665,10.656 78.306665,11.52 L78.306665,16 L79.954665,16 L79.954665,12.736 L79.9567144,12.3951394 C79.9771906,10.8642663 80.1770098,9.408 81.666665,9.408 C83.033705,9.408 83.1326234,10.735104 83.1383496,11.4075034 L83.138665,16 L84.786665,16 L84.786665,11.008 C84.786665,9.344 83.970665,7.968 82.066665,7.968 C80.994665,7.968 80.098665,8.384 79.506665,9.52 C79.042665,8.352 78.130665,7.968 77.202665,7.968 C76.386665,7.968 75.570665,8.256 75.058665,9.104 L75.058665,8.112 L73.474665,8.112 L73.490665,16 L75.138665,16 Z M89.676798,16.144 C90.796798,16.144 91.708798,15.68 92.220798,14.88 L92.348798,16 L93.852798,16 L93.852798,11.04 C93.852798,9.12 92.604798,7.968 90.556798,7.968 C89.148798,7.968 88.028798,8.512 87.116798,9.632 L88.316798,10.64 C88.908798,9.824 89.676798,9.408 90.540798,9.408 C91.580798,9.408 92.204798,10.016 92.204798,11.04 L92.204798,11.312 L90.364798,11.312 C89.244798,11.312 88.508798,11.44 87.964798,11.712 C87.260798,12.064 86.876798,12.736 86.876798,13.632 C86.876798,15.136 87.996798,16.144 89.676798,16.144 Z M89.980798,14.752 C89.084798,14.752 88.524798,14.336 88.524798,13.664 C88.524798,13.328 88.636798,13.056 88.876798,12.896 C89.180798,12.656 89.644798,12.576 90.556798,12.576 L92.204798,12.576 L92.204798,12.608 C92.204798,13.856 91.260798,14.752 89.980798,14.752 Z M98.342931,6.576 L98.342931,4.848 L96.582931,4.848 L96.582931,6.576 L98.342931,6.576 Z M98.294931,16 L98.294931,8.112 L96.646931,8.112 L96.646931,16 L98.294931,16 Z M104.449064,16.144 C105.745064,16.144 106.737064,15.728 107.633064,14.752 L106.481064,13.76 C105.889064,14.432 105.233064,14.656 104.465064,14.656 C103.121064,14.656 102.369064,13.84 102.305064,12.576 L107.841064,12.576 C107.873064,12.336 107.889064,12.096 107.889064,11.856 C107.889064,9.792 106.769064,7.968 104.321064,7.968 C101.809064,7.968 100.657064,9.984 100.657064,12.096 C100.657064,14.256 101.841064,16.144 104.449064,16.144 Z M106.305064,11.312 L102.305064,11.312 C102.385064,10.32 103.025064,9.344 104.321064,9.344 C105.489064,9.344 106.273064,10.096 106.305064,11.216 L106.305064,11.312 Z M111.883197,16 L111.883197,11.888 C111.883197,10.32 112.571197,9.536 113.755197,9.536 C114.123197,9.536 114.427197,9.632 114.731197,9.808 L115.531197,8.368 C115.051197,8.08 114.587197,7.968 114.075197,7.968 C113.211197,7.968 112.299197,8.416 111.899197,9.408 L111.899197,8.112 L110.235197,8.112 L110.235197,16 L111.883197,16 Z M118.96533,6.576 L118.96533,4.848 L117.20533,4.848 L117.20533,6.576 L118.96533,6.576 Z M117.17333,19.408 C118.18133,19.408 118.90133,18.8 118.90133,17.44 L118.90133,8.112 L117.26933,8.112 L117.26933,17.344 C117.26933,17.776 117.02933,17.968 116.64533,17.968 C116.45333,17.968 116.22933,17.936 115.98933,17.856 L115.98933,19.184 C116.40533,19.328 116.82133,19.408 117.17333,19.408 Z M123.583463,16 L123.583463,11.888 C123.583463,10.32 124.271463,9.536 125.455463,9.536 C125.823463,9.536 126.127463,9.632 126.431463,9.808 L127.231463,8.368 C126.751463,8.08 126.287463,7.968 125.775463,7.968 C124.911463,7.968 123.999463,8.416 123.599463,9.408 L123.599463,8.112 L121.935463,8.112 L121.935463,16 L123.583463,16 Z" id="brianmaierjr" fill="#FFFFFF"></path>
                </g>
            </g>
        </g>
    </g>
</svg>