<?xml version="1.0" encoding="UTF-8"?>
<svg width="854px" height="387px" viewBox="0 0 854 387" version="1.1" xmlns="http://www.w3.org/2000/svg" xmlns:xlink="http://www.w3.org/1999/xlink">
    <title>header</title>
    <g id="header" stroke="none" stroke-width="1" fill="none" fill-rule="evenodd">
        <rect fill="#141414" x="0" y="0" width="854" height="387"></rect>
        <g id="Group-6" transform="translate(58.000000, 59.000000)">
            <g id="Group">
                <text id="UI/UX-Designer-&amp;-Fro" font-family="Barlow-ExtraBold, Barlow" font-size="79.504108" font-weight="700" line-spacing="86.67097" letter-spacing="-0.662534244" fill="#6D55F5">
                    <tspan x="0" y="118">UI/UX Designer &amp; </tspan>
                    <tspan x="0" y="204.67097">Front-end Developer</tspan>
                </text>
                <text id="Brian-Maier-Junior" font-family="HKGrotesk-Bold, HK Grotesk" font-size="26.0601553" font-weight="bold" letter-spacing="1.62875976" fill="#DEE6E7">
                    <tspan x="0.333445247" y="26">BRIAN MAIER JUNIOR</tspan>
                </text>
            </g>
            <g id="Group-5" transform="translate(0.000000, 250.000000)">
                <g id="Group-2">
                    <path d="M7.29684997,18.4022846 L7.29634676,18.2633482 C7.29410519,17.8341995 7.28513888,16.7216474 7.28513888,16.0038757 C7.28513888,16.0038757 4.5507704,16.5898118 3.97654539,14.8398236 C3.97654539,14.8398236 3.53125684,13.7030847 2.89061811,13.4101166 C2.89061811,13.4101166 1.99607373,12.7968292 2.9531027,12.8085785 C2.9531027,12.8085785 3.92577189,12.8867033 4.46093449,13.8163809 C5.31637832,15.3241746 6.74997628,14.8905971 7.30856107,14.6327624 C7.39843512,14.0077638 7.65234076,13.5741864 7.93355958,13.3163898 C5.74999392,13.0741952 3.54685891,12.7577668 3.54685891,9 C3.54685891,7.92577761 3.84375609,7.38668588 4.4687546,6.69920278 C4.36716946,6.44529713 4.035139,5.39843226 4.5703016,4.04685009 C5.38672117,3.79294445 7.26560768,5.10153508 7.26560768,5.10153508 C8.04685581,4.88280086 8.88669756,4.76950462 9.7187192,4.76950462 C10.5507408,4.76950462 11.3905826,4.88280086 12.1718307,5.10153508 C12.1718307,5.10153508 14.0507554,3.78905347 14.8671368,4.04685009 C15.4022994,5.40232324 15.0702689,6.44529713 14.9687219,6.69920278 C15.5937205,7.39061501 15.9765244,7.92966859 15.9765244,9 C15.9765244,12.7695161 13.6757334,13.0702661 11.4921677,13.3163898 C11.8515495,13.6249599 12.1562286,14.210896 12.1562286,15.1288626 C12.1562286,16.4452733 12.1445176,18.0741833 12.1445176,18.3945027 C12.1445176,18.6484083 12.3241894,18.9569784 12.8202896,18.8671425 C16.7265303,17.570263 19.3749538,13.8632635 19.3749538,9.53122728 C19.3749538,4.11326381 14.980433,0 9.56246957,0 C4.14450611,0 0,4.11326381 0,9.53122728 C0,13.8632635 2.72654837,17.570263 6.62107796,18.8749626 C7.12106914,18.9647985 7.29684997,18.6561903 7.29684997,18.4022846 Z" id="G" fill="#C9510C" fill-rule="nonzero"></path>
                    <text id="brianmaierjr" font-family="HKGrotesk-SemiBold, HK Grotesk" font-size="16" font-weight="500" letter-spacing="0.554133" fill="#FFFFFF">
                        <tspan x="31" y="16">brianmaierjr</tspan>
                    </text>
                </g>
                <g id="Group-3" transform="translate(178.000000, 0.000000)">
                    <path d="M9.6874769,19.3749538 C15.0291847,19.3749538 19.3749538,15.0291847 19.3749538,9.6874769 C19.3749538,4.34576906 15.0291847,0 9.6874769,0 C4.34576906,0 0,4.34576906 0,9.6874769 C0,15.0291847 4.34576906,19.3749538 9.6874769,19.3749538 Z M10.8359269,6.499542 C9.47999601,4.00832174 7.97712331,1.96174154 7.74843276,1.65549837 C10.3724805,1.02298493 13.1377098,1.70512747 15.1726552,3.51054308 C15.0238442,3.7225253 13.7782341,5.39671565 10.8359269,6.499542 Z M1.58763507,8.00539015 C2.12420911,5.4376854 3.85458981,3.3036344 6.16957147,2.21171805 C6.38773349,2.51090405 7.86634477,4.56000195 9.23738185,6.99720622 C5.36680849,8.02507395 1.95773612,8.01027296 1.58763507,8.00539015 Z M17.9610778,9.62190241 C17.6882894,9.56418618 14.9525858,9.00930164 12.1992965,9.35556089 C11.9746113,8.80708502 11.7625528,8.32460326 11.4720643,7.73000782 C14.5314824,6.48092632 15.9180834,4.70339607 16.0925291,4.46741946 C17.2449845,5.87545901 17.9428817,7.66885836 17.9610778,9.62190241 Z M3.54010692,15.2327365 C2.2185082,13.7657982 1.4128842,11.8253807 1.4128842,9.70010352 C1.4128842,9.61549374 1.41456267,9.53126542 1.41711851,9.44722784 C1.77913242,9.45466648 5.78898003,9.50635551 9.92124099,8.26967175 C10.158095,8.7332708 10.3843823,9.20385074 10.5920921,9.67393476 C7.59992695,10.5166757 4.88138942,12.9366757 3.54010692,15.2327365 Z M14.3108027,16.5595232 C14.225964,16.0561751 13.7855583,13.6338863 12.7032931,10.6598028 C15.2962511,10.2447266 17.5743828,10.9241988 17.8574709,11.0135388 C17.4886287,13.3158939 16.1671062,15.3043001 14.3108027,16.5595232 Z M4.60844849,16.2279124 C5.47278053,14.4610251 7.81854673,12.180223 11.1544915,11.042149 C12.3162167,14.0610169 12.7966385,16.5911088 12.9197003,17.3170821 C10.2590698,18.4503878 7.0597671,18.1394526 4.60844849,16.2279124 Z" id="d" fill="#EA4C89" fill-rule="nonzero"></path>
                    <text id="brianmaierjr" font-family="HKGrotesk-SemiBold, HK Grotesk" font-size="16" font-weight="500" letter-spacing="0.554133" fill="#FFFFFF">
                        <tspan x="32" y="16">brianmaierjr</tspan>
                    </text>
                </g>
                <g id="Group-4" transform="translate(357.000000, 0.000000)">
                    <path d="M6.29438807,18.2435907 C13.8324789,18.2435907 17.9568053,11.999938 17.9568053,6.58121161 C17.9568053,6.40356158 17.9568053,6.22583526 17.9441024,6.04818523 C18.7435848,5.4644235 19.4415964,4.74108233 19.999876,3.92893522 C19.2638701,4.24616469 18.4643877,4.47462636 17.6394996,4.5634323 C18.4897173,4.0558499 19.1369173,3.25636755 19.4415201,2.3045647 C18.6546644,2.77411467 17.7663761,3.11674996 16.8400172,3.29439999 C16.0912321,2.49491764 15.0252938,2 13.8450674,2 C11.573535,2 9.74610866,3.84009113 9.74610866,6.09895873 C9.74610866,6.41622635 9.78417925,6.73345582 9.84761751,7.03802052 C6.44667042,6.86033235 3.41365,5.23599998 1.39590884,2.74870885 C1.04053249,3.35783825 0.837552935,4.05581175 0.837552935,4.81722351 C0.837552935,6.23853817 1.56085596,7.49486758 2.66490301,8.23091166 C1.99237348,8.20558213 1.35780011,8.01522919 0.812147112,7.71066449 L0.812147112,7.76139984 C0.812147112,9.75377332 2.22079701,11.4034734 4.09895873,11.7842174 C3.75636159,11.8730233 3.38832047,11.9237968 3.02031751,11.9237968 C2.75378524,11.9237968 2.5,11.8984292 2.24616469,11.8603586 C2.76648816,13.4847291 4.27664691,14.6649173 6.07866745,14.703026 C4.67001755,15.8070731 2.90602945,16.4542731 0.989835287,16.4542731 C0.647199995,16.4542731 0.329970527,16.4415702 0,16.4035377 C1.81472346,17.5709849 3.97204406,18.2435907 6.29438807,18.2435907 Z" id="t" fill="#1DA1F2" fill-rule="nonzero"></path>
                    <text id="brianmaierjr-copy" font-family="HKGrotesk-SemiBold, HK Grotesk" font-size="16" font-weight="500" letter-spacing="0.554133" fill="#FFFFFF">
                        <tspan x="32" y="16">brianmaierjr</tspan>
                    </text>
                </g>
            </g>
        </g>
    </g>
</svg>